<?xml version="1.0" encoding="UTF-8"?>
<svg version="1.1" xmlns="http://www.w3.org/2000/svg" width="280" height="314">
<path d="M0 0 C7.69416403 0.57012439 15.30607888 1.36900435 22.9375 2.5 C23.84306641 2.63019531 24.74863281 2.76039063 25.68164062 2.89453125 C32.35265796 3.86503928 32.35265796 3.86503928 35.15058899 4.44836426 C38.71723976 5.13885504 42.30211206 5.67122965 45.89550781 6.19921875 C47.06462204 6.37259262 47.06462204 6.37259262 48.25735474 6.54946899 C49.94274746 6.79932651 51.62821841 7.04865679 53.31375885 7.29751587 C55.97786161 7.691155 58.64165415 8.08683128 61.30535889 8.4831543 C68.87627699 9.60948233 76.44744869 10.73406353 84.01953125 11.85253906 C88.65530409 12.53744033 93.29046772 13.22633824 97.92525482 13.9178772 C99.69374991 14.18094642 101.46247375 14.4424824 103.23142242 14.70248413 C105.69555083 15.06480486 108.15887379 15.43218657 110.62207031 15.80078125 C111.72698318 15.96134506 111.72698318 15.96134506 112.85421753 16.12515259 C117.88600782 16.88600782 117.88600782 16.88600782 119 18 C119.09983058 19.98757028 119.13080753 21.9786752 119.1328125 23.96875 C119.13410156 25.17917969 119.13539063 26.38960938 119.13671875 27.63671875 C119.13285156 28.91160156 119.12898438 30.18648438 119.125 31.5 C119.12886719 32.77488281 119.13273437 34.04976563 119.13671875 35.36328125 C119.13542969 36.57371094 119.13414062 37.78414063 119.1328125 39.03125 C119.13168457 40.15080078 119.13055664 41.27035156 119.12939453 42.42382812 C119 45 119 45 118 46 C116.48413888 46.09795069 114.96372447 46.12631815 113.44470215 46.12698364 C112.46031662 46.12980347 111.47593109 46.13262329 110.4617157 46.13552856 C109.37284561 46.13350433 108.28397552 46.1314801 107.16210938 46.12939453 C106.02240189 46.13114685 104.8826944 46.13289917 103.70845032 46.13470459 C99.92020164 46.13912586 96.1319992 46.13618414 92.34375 46.1328125 C89.72440583 46.13348546 87.10506173 46.13445542 84.48571777 46.13571167 C78.98770644 46.1375332 73.48970852 46.13512749 67.99169922 46.13037109 C61.62683013 46.1249285 55.26199308 46.12669117 48.89712477 46.1321975 C42.78515668 46.13727429 36.67320284 46.1367471 30.56123352 46.13381577 C27.95518489 46.13314622 25.34913545 46.13397587 22.74308777 46.13629532 C19.10799967 46.13882022 15.47297404 46.13498353 11.83789062 46.12939453 C10.20458549 46.13243088 10.20458549 46.13243088 8.5382843 46.13552856 C7.55389877 46.13270874 6.56951324 46.12988892 5.55529785 46.12698364 C4.69472023 46.12660662 3.83414261 46.12622959 2.94748688 46.12584114 C1 46 1 46 0 45 C-0.0928726 43.58774954 -0.11746772 42.17091066 -0.11352539 40.75561523 C-0.11344986 39.85475693 -0.11337433 38.95389862 -0.11329651 38.02574158 C-0.10813522 37.04658279 -0.10297394 36.06742401 -0.09765625 35.05859375 C-0.0962413 34.06118668 -0.09482635 33.0637796 -0.09336853 32.03614807 C-0.08775114 28.83656876 -0.07519571 25.63705831 -0.0625 22.4375 C-0.05748724 20.27408955 -0.05292395 18.11067801 -0.04882812 15.94726562 C-0.03777607 10.63148675 -0.02102104 5.31574829 0 0 Z " fill="#FEFEFE" transform="translate(128,249)"/>
<path d="M0 0 C8.41914342 1.46457022 16.54306992 3.78022255 24.734375 6.18359375 C26.16508749 6.59995951 27.59591191 7.01594084 29.02684021 7.43156433 C32.82217469 8.5350414 36.61602993 9.64351913 40.40954208 10.75324249 C44.31959259 11.89638691 48.23074484 13.03574836 52.1418457 14.17529297 C56.79261014 15.53045549 61.44331343 16.88582188 66.09346008 18.24310303 C74.69961653 20.75413967 83.31134353 23.24387507 91.93359375 25.69921875 C93.73015346 26.21228513 95.5267035 26.72538538 97.32324219 27.23852539 C99.73048843 27.92583181 102.1382012 28.61112141 104.54797363 29.28952026 C106.67295259 29.88791841 108.79564169 30.49383949 110.91796875 31.1015625 C112.63149536 31.58616943 112.63149536 31.58616943 114.37963867 32.08056641 C117 33 117 33 119 35 C119.17495606 37.50920846 119.23169569 39.90624941 119.1953125 42.4140625 C119.1924826 43.14370209 119.18965271 43.87334167 119.18673706 44.62509155 C119.17553002 46.95856028 119.1504251 49.29164703 119.125 51.625 C119.11497085 53.20572363 119.10584489 54.78645327 119.09765625 56.3671875 C119.07558905 60.24493914 119.04105615 64.12240478 119 68 C109.31060356 67.47255302 100.31778149 64.90258552 91 62.375 C89.29592208 61.91898059 87.5916557 61.46366489 85.88720703 61.0090332 C80.92217755 59.6823534 75.96080967 58.34235696 71 57 C69.67158433 56.64130969 68.34313636 56.28273902 67.01464844 55.92431641 C57.7662903 53.42894764 57.7662903 53.42894764 53.74682617 52.34008789 C46.47290235 50.37582898 39.17709324 48.51664565 31.86352539 46.70629883 C2.41485566 39.41485566 2.41485566 39.41485566 0 37 C-0.08858646 34.26105915 -0.11523479 31.5474673 -0.09765625 28.80859375 C-0.0962413 27.98875504 -0.09482635 27.16891632 -0.09336853 26.32423401 C-0.08775289 23.69528618 -0.07519779 21.06642227 -0.0625 18.4375 C-0.05748701 16.65950643 -0.05292376 14.88151154 -0.04882812 13.10351562 C-0.03777839 8.73564455 -0.02050331 4.36783652 0 0 Z " fill="#FEFEFE" transform="translate(128,66)"/>
<path d="M0 0 C9.38255181 0.93373194 18.65192393 3.86012893 27.75390625 6.24609375 C29.34764399 6.66206058 30.94138903 7.07799942 32.53514099 7.49391174 C35.85149373 8.36070323 39.16684786 9.23120845 42.48168945 10.10375977 C46.73259349 11.22186356 50.98717611 12.32524922 55.24276829 13.42535305 C58.52440661 14.27633631 61.80327915 15.13760862 65.08146477 16.00178719 C66.65018557 16.41345802 68.21991812 16.82129328 69.79065132 17.22521782 C71.97616644 17.78831774 74.15738583 18.36577917 76.33813477 18.94702148 C77.57958755 19.2718602 78.82104034 19.59669891 80.10011292 19.93138123 C83 21 83 21 85 24 C85.24723816 25.90382385 85.24723816 25.90382385 85.24291992 28.07250977 C85.24753487 29.29376305 85.24753487 29.29376305 85.25224304 30.53968811 C85.24146477 31.85228859 85.24146477 31.85228859 85.23046875 33.19140625 C85.23001053 34.0924559 85.22955231 34.99350555 85.2290802 35.92185974 C85.22606 37.82576821 85.21818065 39.72967425 85.20581055 41.63354492 C85.1875493 44.55461333 85.18530093 47.47536483 85.18554688 50.39648438 C85.18063177 52.24479442 85.17480348 54.09310231 85.16796875 55.94140625 C85.16685593 56.81849747 85.1657431 57.69558868 85.16459656 58.59925842 C85.11607135 64.76785729 85.11607135 64.76785729 84 67 C74.79842553 66.31852894 65.89169323 64.50217518 56.87109375 62.65625 C55.22874837 62.32345074 53.58633693 61.99097733 51.94386292 61.65881348 C48.52337113 60.96594529 45.10359839 60.26966195 41.68432617 59.57080078 C37.29384043 58.67365242 32.90179514 57.78442235 28.50921535 56.89759064 C25.12787544 56.2141662 21.74730161 55.52701505 18.36696053 54.83866882 C16.7463858 54.50906256 15.12559059 54.18053844 13.50457573 53.85310364 C11.25153573 53.39734423 8.99955559 52.93667998 6.74780273 52.47460938 C5.46558334 52.2133728 4.18336395 51.95213623 2.86228943 51.6829834 C0 51 0 51 -1 50 C-1.09839214 48.4706537 -1.12798539 46.93680434 -1.12939453 45.40429688 C-1.13254669 44.42658325 -1.13569885 43.44886963 -1.13894653 42.44152832 C-1.1369223 41.37801147 -1.13489807 40.31449463 -1.1328125 39.21875 C-1.13376923 38.13493042 -1.13472595 37.05111084 -1.13571167 35.93444824 C-1.13639365 33.6377761 -1.13453811 31.34110205 -1.13037109 29.04443359 C-1.12502312 25.51525572 -1.1303155 21.98620513 -1.13671875 18.45703125 C-1.13605797 16.23177055 -1.13477682 14.00650993 -1.1328125 11.78125 C-1.13483673 10.71773315 -1.13686096 9.65421631 -1.13894653 8.55847168 C-1.13579437 7.58075806 -1.13264221 6.60304443 -1.12939453 5.59570312 C-1.12859894 4.73046021 -1.12780334 3.86521729 -1.12698364 2.97375488 C-1 1 -1 1 0 0 Z " fill="#912D6C" transform="translate(129,118)"/>
<path d="M0 0 C0.07587748 7.08407758 0.12852671 14.16805094 0.16479492 21.25244141 C0.17990945 23.66393957 0.20040153 26.07541014 0.22631836 28.48681641 C0.26258425 31.94700928 0.27969956 35.40683971 0.29296875 38.8671875 C0.30845261 39.95055389 0.32393646 41.03392029 0.33988953 42.15011597 C0.34011612 43.1510025 0.34034271 44.15188904 0.34057617 45.18310547 C0.35056892 46.50881058 0.35056892 46.50881058 0.36076355 47.86129761 C0.24171158 48.5670694 0.12265961 49.27284119 0 50 C-2.82718099 51.88478733 -4.3139797 52.4549951 -7.53369141 53.1574707 C-8.45381012 53.36140945 -9.37392883 53.56534821 -10.32192993 53.77546692 C-11.32170868 53.99007065 -12.32148743 54.20467438 -13.3515625 54.42578125 C-14.39782806 54.65524948 -15.44409363 54.88471771 -16.52206421 55.12113953 C-18.75250102 55.60906114 -20.98361384 56.09390097 -23.21533203 56.57592773 C-26.53693533 57.29347586 -29.85651006 58.01979629 -33.17578125 58.74804688 C-44.46292321 61.21499832 -55.76609342 63.60567452 -67.0859375 65.91796875 C-68.70878159 66.25529778 -68.70878159 66.25529778 -70.3644104 66.59944153 C-71.84764297 66.8986274 -71.84764297 66.8986274 -73.36083984 67.20385742 C-74.23509613 67.3823674 -75.10935242 67.56087738 -76.01010132 67.74479675 C-76.66676788 67.82901382 -77.32343445 67.9132309 -78 68 C-79 67 -79 67 -79.12025452 65.17137146 C-79.1169236 63.97557213 -79.1169236 63.97557213 -79.11352539 62.75561523 C-79.11344986 61.85475693 -79.11337433 60.95389862 -79.11329651 60.02574158 C-79.10813522 59.04658279 -79.10297394 58.06742401 -79.09765625 57.05859375 C-79.0962413 56.06118668 -79.09482635 55.0637796 -79.09336853 54.03614807 C-79.08775114 50.83656876 -79.07519571 47.63705831 -79.0625 44.4375 C-79.05748724 42.27408955 -79.05292395 40.11067801 -79.04882812 37.94726562 C-79.03777607 32.63148675 -79.02102104 27.31574829 -79 22 C-73.36858583 19.43222135 -67.67348017 17.59238598 -61.73828125 15.85546875 C-60.75240524 15.56319901 -59.76652924 15.27092926 -58.7507782 14.96980286 C-55.60584714 14.03838527 -52.45924037 13.11278432 -49.3125 12.1875 C-46.22399716 11.2749492 -43.13584809 10.36121146 -40.04782104 9.447052 C-38.01353789 8.84592848 -35.97864726 8.2468568 -33.94314575 7.64987183 C-29.0133772 6.201904 -24.09623975 4.72590954 -19.19677734 3.17822266 C-17.82781563 2.75081535 -17.82781563 2.75081535 -16.43119812 2.31477356 C-14.72226438 1.77940669 -13.01613974 1.23495404 -11.31355286 0.67973328 C-10.55290024 0.4429335 -9.79224762 0.20613373 -9.00854492 -0.0378418 C-8.35158127 -0.24869919 -7.69461761 -0.45955658 -7.01774597 -0.67680359 C-4.47838851 -1.08355014 -2.4772221 -0.61684798 0 0 Z " fill="#7645C0" transform="translate(121,184)"/>
<path d="M0 0 C8.04377809 0.57039269 15.88342865 2.26728043 23.7734375 3.87109375 C25.18825271 4.1564881 26.60309905 4.44172814 28.01797485 4.7268219 C30.96518189 5.32173602 33.91173937 5.91975155 36.85791016 6.51977539 C40.63255558 7.28807872 44.40909838 8.04657826 48.18622398 8.80258083 C51.10048957 9.38733489 54.01349204 9.97819441 56.92616653 10.57081795 C58.31879715 10.85320974 59.71186089 11.13347431 61.10535812 11.41155815 C63.04727016 11.7998306 64.98731016 12.19743079 66.92724609 12.59545898 C68.03039154 12.81894516 69.13353699 13.04243134 70.27011108 13.27268982 C73 14 73 14 76 16 C76.36076355 17.94888306 76.36076355 17.94888306 76.34057617 20.35791016 C76.34034958 21.25869293 76.34012299 22.15947571 76.33988953 23.08755493 C76.32440567 24.06155243 76.30892181 25.03554993 76.29296875 26.0390625 C76.28872391 27.03505463 76.28447906 28.03104675 76.28010559 29.05722046 C76.2632768 32.24675225 76.22561676 35.43565833 76.1875 38.625 C76.1724586 40.78384506 76.15876925 42.9427 76.14648438 45.1015625 C76.11335967 50.40125612 76.06311896 55.70058337 76 61 C68.17457096 61.33890392 60.59655552 60.06068272 52.88671875 58.8828125 C51.42564797 58.66310355 49.96453164 58.44369736 48.50337219 58.22457886 C45.45598195 57.76612917 42.40930044 57.30327909 39.36303711 56.83740234 C35.45935037 56.24087382 31.55393595 55.65663721 27.64789104 55.07577705 C24.63681428 54.62642885 21.62683611 54.17004454 18.617136 53.71157455 C17.17697756 53.49317625 15.73646388 53.2771072 14.29559898 53.06341934 C12.28671313 52.76453438 10.27941704 52.45502239 8.2722168 52.14501953 C7.13052536 51.97181183 5.98883392 51.79860413 4.81254578 51.62014771 C2 51 2 51 -1 49 C-1.36749268 46.94395447 -1.36749268 46.94395447 -1.35644531 44.38256836 C-1.35944641 43.42495102 -1.36244751 42.46733368 -1.36553955 41.48069763 C-1.35319275 40.44421585 -1.34084595 39.40773407 -1.328125 38.33984375 C-1.32625183 37.27963516 -1.32437866 36.21942657 -1.32244873 35.12709045 C-1.31571839 32.88344178 -1.30178459 30.63980503 -1.28125 28.39624023 C-1.25009753 24.94829499 -1.24028134 21.50080637 -1.234375 18.05273438 C-1.22520545 15.87759855 -1.21482983 13.70246741 -1.203125 11.52734375 C-1.19887512 10.48883774 -1.19462524 9.45033173 -1.19024658 8.38035583 C-1.18063904 7.42589066 -1.17103149 6.47142548 -1.16113281 5.48803711 C-1.15430481 4.64357529 -1.14747681 3.79911346 -1.14044189 2.92906189 C-1 1 -1 1 0 0 Z " fill="#3D72A7" transform="translate(171,191)"/>
<path d="M0 0 C0 16.17 0 32.34 0 49 C-7.87394505 52.37454788 -7.87394505 52.37454788 -11.14575195 53.31518555 C-11.88301514 53.52964325 -12.62027832 53.74410095 -13.37988281 53.96505737 C-14.1581543 54.18670563 -14.93642578 54.40835388 -15.73828125 54.63671875 C-16.56900146 54.87754181 -17.39972168 55.11836487 -18.25561523 55.3664856 C-20.94010443 56.14416152 -23.62623867 56.91596995 -26.3125 57.6875 C-30.01124598 58.75496004 -33.7090294 59.82570672 -37.40625 60.8984375 C-38.77285515 61.2946505 -38.77285515 61.2946505 -40.16706848 61.6988678 C-45.57862142 63.27448665 -50.9704627 64.9001046 -56.34375 66.6015625 C-57.54088623 66.97966064 -58.73802246 67.35775879 -59.97143555 67.74731445 C-62.1449653 68.440271 -64.31588043 69.14150125 -66.48364258 69.85229492 C-67.90906372 70.3063269 -67.90906372 70.3063269 -69.36328125 70.76953125 C-70.17063721 71.03354736 -70.97799316 71.29756348 -71.80981445 71.56958008 C-74 72 -74 72 -78 71 C-78 57.47 -78 43.94 -78 30 C-69.00044184 25.50022092 -69.00044184 25.50022092 -65.64892578 24.23583984 C-64.51313583 23.80372696 -64.51313583 23.80372696 -63.35440063 23.36288452 C-62.55940155 23.065242 -61.76440247 22.76759949 -60.9453125 22.4609375 C-60.09367523 22.1380777 -59.24203796 21.8152179 -58.36459351 21.48257446 C-55.61952664 20.44279578 -52.87232084 19.40880666 -50.125 18.375 C-47.2883376 17.3028332 -44.45216896 16.22936757 -41.61602783 15.15582275 C-39.73564388 14.444178 -37.85507007 13.73303471 -35.9743042 13.0223999 C-30.48197667 10.94590028 -24.99745257 8.85085956 -19.5234375 6.7265625 C-18.3154248 6.25814941 -17.10741211 5.78973633 -15.86279297 5.30712891 C-13.6707614 4.45507888 -11.47963352 3.60069917 -9.28955078 2.74365234 C-7.86231689 2.18991943 -7.86231689 2.18991943 -6.40625 1.625 C-5.18905273 1.14933594 -5.18905273 1.14933594 -3.94726562 0.6640625 C-2 0 -2 0 0 0 Z " fill="#FEFEFE" transform="translate(120,119)"/>
<path d="M0 0 C1.77436559 28.86512594 1.77436559 28.86512594 0.49169922 41.25170898 C0.40008514 42.1434935 0.30847107 43.03527802 0.21408081 43.9540863 C0.14343414 44.62923782 0.07278748 45.30438934 0 46 C-10.02227763 46.0231241 -20.04454897 46.04091543 -30.0668478 46.05181217 C-34.72011186 46.05704085 -39.37335774 46.06413823 -44.02661133 46.07543945 C-48.51344546 46.08626886 -53.00026204 46.09227695 -57.48710823 46.09487724 C-59.20280293 46.0967314 -60.91849662 46.10035182 -62.63418388 46.10573006 C-65.02884913 46.11294121 -67.42344096 46.11399091 -69.81811523 46.11352539 C-70.89273262 46.1189183 -70.89273262 46.1189183 -71.98905945 46.12442017 C-76.88594784 46.11405216 -76.88594784 46.11405216 -78 45 C-78.281489 40.52731037 -78.23181434 36.04299265 -78.25 31.5625 C-78.270625 30.29599609 -78.29125 29.02949219 -78.3125 27.72460938 C-78.31765625 26.51740234 -78.3228125 25.31019531 -78.328125 24.06640625 C-78.3374707 22.95209229 -78.34681641 21.83777832 -78.35644531 20.68969727 C-78.23881836 19.80209717 -78.12119141 18.91449707 -78 18 C-74.36620512 15.57747008 -70.84801456 14.94367906 -66.64453125 14.08203125 C-65.80217926 13.90382843 -64.95982727 13.72562561 -64.09194946 13.54202271 C-61.33333471 12.95963061 -58.57295207 12.38611394 -55.8125 11.8125 C-52.95837008 11.21215923 -50.10471322 10.60960257 -47.25105286 10.0070343 C-45.32265895 9.60007551 -43.3940993 9.19390134 -41.46537781 8.78849792 C-31.74899279 6.74470677 -22.05132719 4.61841105 -12.35586548 2.47793579 C-10.44444248 2.05614496 -8.53277525 1.63546141 -6.62109375 1.21484375 C-5.01899048 0.86087524 -5.01899048 0.86087524 -3.38452148 0.49975586 C-1 0 -1 0 0 0 Z " fill="#FDFDFD" transform="translate(120,249)"/>
<path d="M0 0 C-0.33 9.9 -0.66 19.8 -1 30 C-12.2408056 35.6204028 -12.2408056 35.6204028 -17.7734375 37.91015625 C-18.37198547 38.15931793 -18.97053345 38.40847961 -19.58721924 38.66519165 C-20.85970767 39.19458601 -22.13282985 39.72245941 -23.40655518 40.24887085 C-26.81058734 41.65587996 -30.20976363 43.07453791 -33.609375 44.4921875 C-34.30282013 44.78105331 -34.99626526 45.06991913 -35.71072388 45.36753845 C-44.22693527 48.92010874 -52.70213049 52.56779021 -61.17724609 56.21704102 C-62.26602051 56.68553467 -63.35479492 57.15402832 -64.4765625 57.63671875 C-65.42611816 58.04623779 -66.37567383 58.45575684 -67.35400391 58.87768555 C-68.22718262 59.24804932 -69.10036133 59.61841309 -70 60 C-70.8564209 60.37874268 -71.7128418 60.75748535 -72.59521484 61.14770508 C-75 62 -75 62 -79 62 C-79.05796132 57.89589245 -79.09358313 53.79188984 -79.125 49.6875 C-79.14175781 48.52025391 -79.15851563 47.35300781 -79.17578125 46.15039062 C-79.18222656 45.03212891 -79.18867187 43.91386719 -79.1953125 42.76171875 C-79.20578613 41.73006592 -79.21625977 40.69841309 -79.22705078 39.63549805 C-79 37 -79 37 -77 34 C-74.82373047 32.77661133 -74.82373047 32.77661133 -72.1171875 31.58203125 C-71.11300781 31.13150391 -70.10882813 30.68097656 -69.07421875 30.21679688 C-68.01847656 29.75337891 -66.96273437 29.28996094 -65.875 28.8125 C-58.24989532 25.43174252 -50.73319455 21.90691898 -43.28691101 18.15255737 C-36.04765985 14.50691913 -28.75391424 10.98069478 -21.43139648 7.50561523 C-19.91023153 6.78152681 -18.39107923 6.05319777 -16.8737793 5.32104492 C-14.64288566 4.24493346 -12.40629603 3.18163879 -10.16796875 2.12109375 C-9.1509211 1.62602577 -9.1509211 1.62602577 -8.11332703 1.12095642 C-3.34228845 -1.11409615 -3.34228845 -1.11409615 0 0 Z " fill="#FEFEFE" transform="translate(121,22)"/>
<path d="M0 0 C1.65093134 4.95279402 1.18593346 10.10041111 1.18530273 15.28686523 C1.1874808 17.29480068 1.20597276 19.30269674 1.22460938 21.31054688 C1.22654297 22.58607422 1.22847656 23.86160156 1.23046875 25.17578125 C1.23457764 26.34020752 1.23868652 27.50463379 1.24291992 28.7043457 C0.78847143 34.86977303 0.78847143 34.86977303 -1 38 C-4.25006013 39.97291691 -7.72845437 41.18225745 -11.30078125 42.453125 C-12.3293071 42.83942078 -13.35783295 43.22571655 -14.41752625 43.62371826 C-17.70826602 44.85414669 -21.0096938 46.05238733 -24.3125 47.25 C-26.52617554 48.07080286 -28.7390773 48.89369585 -30.95117188 49.71875 C-35.83639781 51.53755157 -40.72861297 53.3359064 -45.62788391 55.11651611 C-47.28781375 55.73474946 -48.92905744 56.40446478 -50.55314636 57.11151123 C-53 58 -53 58 -57 58 C-57 46.78 -57 35.56 -57 24 C-45.75094954 18.37547477 -45.75094954 18.37547477 -41.00390625 16.38671875 C-39.43672852 15.72700073 -39.43672852 15.72700073 -37.83789062 15.05395508 C-36.75701172 14.6030249 -35.67613281 14.15209473 -34.5625 13.6875 C-32.27212676 12.72658313 -29.98176226 11.76564544 -27.69140625 10.8046875 C-26.56621582 10.33385742 -25.44102539 9.86302734 -24.28173828 9.37792969 C-21.23405605 8.09827498 -18.19199914 6.80639779 -15.15234375 5.5078125 C-14.27570068 5.13438721 -13.39905762 4.76096191 -12.49584961 4.3762207 C-10.86671255 3.68188928 -9.23857064 2.98521691 -7.61157227 2.28588867 C-2.22500475 0 -2.22500475 0 0 0 Z " fill="#F7B386" transform="translate(120,67)"/>
<path d="M0 0 C8.64699288 1.2540431 17.20062406 2.76178769 25.75 4.5625 C26.82765625 4.78357422 27.9053125 5.00464844 29.015625 5.23242188 C30.0365625 5.44576172 31.0575 5.65910156 32.109375 5.87890625 C33.02686523 6.0704126 33.94435547 6.26191895 34.88964844 6.45922852 C37 7 37 7 38 8 C38.09319449 9.5348297 38.117458 11.07392082 38.11352539 12.61157227 C38.11344986 13.59251358 38.11337433 14.5734549 38.11329651 15.5841217 C38.10813522 16.6507756 38.10297394 17.7174295 38.09765625 18.81640625 C38.0962413 19.9025975 38.09482635 20.98878876 38.09336853 22.1078949 C38.08775048 25.59279075 38.07519492 29.07762342 38.0625 32.5625 C38.05748733 34.91861887 38.05292402 37.27473874 38.04882812 39.63085938 C38.03777519 45.42059464 38.02101951 51.21029281 38 57 C33.952923 58.18147818 30.52828545 57.69372782 26.42578125 57.0390625 C25.70134323 56.929039 24.97690521 56.8190155 24.23051453 56.70565796 C22.70445213 56.4722148 21.17896866 56.23495919 19.65405273 55.99414062 C17.31171026 55.6248755 14.96766775 55.26854188 12.62304688 54.9140625 C11.14050811 54.68565325 9.65808189 54.45651207 8.17578125 54.2265625 C7.47165604 54.11921783 6.76753082 54.01187317 6.04206848 53.90127563 C1.11595615 53.11595615 1.11595615 53.11595615 0 52 C-0.09340434 50.37325222 -0.11745171 48.74245949 -0.11352539 47.11303711 C-0.11344986 46.07203354 -0.11337433 45.03102997 -0.11329651 43.95848083 C-0.10813522 42.8262056 -0.10297394 41.69393036 -0.09765625 40.52734375 C-0.0962413 39.37456436 -0.09482635 38.22178497 -0.09336853 37.03407288 C-0.08775005 33.33518936 -0.07519442 29.63636536 -0.0625 25.9375 C-0.05748738 23.43684983 -0.05292406 20.93619871 -0.04882812 18.43554688 C-0.03777462 12.29034412 -0.02101852 6.14517631 0 0 Z " fill="#FEFEFE" transform="translate(128,182)"/>
<path d="M0 0 C4.05318564 0.67553094 7.42042346 1.33933657 11.25512695 2.56640625 C12.25248367 2.88343506 13.24984039 3.20046387 14.27742004 3.52709961 C15.33700424 3.86878174 16.39658844 4.21046387 17.48828125 4.5625 C19.13669258 5.08952515 19.13669258 5.08952515 20.81840515 5.62719727 C23.13291906 6.36826631 25.44677489 7.1113934 27.76000977 7.85644531 C31.31547718 9.00095836 34.87337466 10.13765883 38.43164062 11.2734375 C40.67983572 11.99432957 42.92788773 12.7156681 45.17578125 13.4375 C46.2454866 13.77918213 47.31519196 14.12086426 48.41731262 14.47290039 C49.8897065 14.9484436 49.8897065 14.9484436 51.3918457 15.43359375 C52.25977249 15.71259521 53.12769928 15.99159668 54.02192688 16.27905273 C56 17 56 17 57 18 C57.08775605 20.14558827 57.10695219 22.29404421 57.09765625 24.44140625 C57.09443359 25.74658203 57.09121094 27.05175781 57.08789062 28.39648438 C57.07953401 29.7851569 57.07106905 31.17382877 57.0625 32.5625 C57.05748666 33.95507656 57.05292347 35.34765481 57.04882812 36.74023438 C57.03699434 40.1601987 57.0205088 43.58007844 57 47 C54.28417871 48.35791064 53.1812389 47.67653415 50.28515625 46.84765625 C48.80909912 46.4302417 48.80909912 46.4302417 47.30322266 46.00439453 C46.23378418 45.69356934 45.1643457 45.38274414 44.0625 45.0625 C42.96470215 44.74909668 41.8669043 44.43569336 40.73583984 44.11279297 C9.27400568 35.09133523 9.27400568 35.09133523 0 32 C0 21.44 0 10.88 0 0 Z " fill="#FEFEFE" transform="translate(128,20)"/>
<path d="M0 0 C6.78521443 1.39788685 13.28881207 3.25573602 19.87109375 5.40625 C20.87463394 5.73161743 21.87817413 6.05698486 22.91212463 6.39221191 C25.0162489 7.07590805 27.11966995 7.76177187 29.22241211 8.44970703 C32.44988653 9.50404639 35.68081767 10.54727043 38.91210938 11.58984375 C40.96115509 12.25714473 43.00999096 12.92509049 45.05859375 13.59375 C46.02623154 13.90526001 46.99386932 14.21677002 47.99082947 14.53771973 C48.88258377 14.83142456 49.77433807 15.12512939 50.69311523 15.42773438 C51.47871323 15.68373413 52.26431122 15.93973389 53.07371521 16.20349121 C55 17 55 17 57 19 C57.22705078 21.52197266 57.22705078 21.52197266 57.1953125 24.6640625 C57.18886719 25.78554687 57.18242187 26.90703125 57.17578125 28.0625 C57.15902344 29.238125 57.14226562 30.41375 57.125 31.625 C57.11597656 32.80835938 57.10695312 33.99171875 57.09765625 35.2109375 C57.07402812 38.14082523 57.04108514 41.0703134 57 44 C52.79534216 45.17202837 50.04131543 44.74588039 45.87109375 43.55859375 C44.67991943 43.2248877 43.48874512 42.89118164 42.26147461 42.54736328 C40.99956299 42.1811084 39.73765137 41.81485352 38.4375 41.4375 C37.1337633 41.06677673 35.82980634 40.69682721 34.52563477 40.32763672 C30.6790565 39.23431858 26.83929918 38.11861188 23 37 C21.9275 36.68981934 20.855 36.37963867 19.75 36.06005859 C16.97686486 35.25594063 14.20631329 34.44386348 11.4375 33.625 C10.63046631 33.3870874 9.82343262 33.1491748 8.99194336 32.90405273 C5.48721166 31.84680407 2.24096246 30.69463847 -1 29 C-1.02891546 24.54168018 -1.04676981 20.08338431 -1.0625 15.625 C-1.07087891 14.35398437 -1.07925781 13.08296875 -1.08789062 11.7734375 C-1.09111328 10.56171875 -1.09433594 9.35 -1.09765625 8.1015625 C-1.10289307 6.98088379 -1.10812988 5.86020508 -1.11352539 4.70556641 C-1 2 -1 2 0 0 Z " fill="#FEFEFE" transform="translate(190,40)"/>
<path d="M0 0 C10.13407821 1.12600869 10.13407821 1.12600869 14 2.15625 C14.82371094 2.37410156 15.64742187 2.59195313 16.49609375 2.81640625 C17.32238281 3.04199219 18.14867187 3.26757812 19 3.5 C20.28583984 3.83837891 20.28583984 3.83837891 21.59765625 4.18359375 C27.86113366 5.86113366 27.86113366 5.86113366 29 7 C29.08874135 10.10251201 29.11518455 13.1826812 29.09765625 16.28515625 C29.0962413 17.21597519 29.09482635 18.14679413 29.09336853 19.1058197 C29.08775172 22.09141191 29.0751964 25.07693029 29.0625 28.0625 C29.05748716 30.08137913 29.05292388 32.10025943 29.04882812 34.11914062 C29.03777683 39.07945572 29.02050095 44.03971532 29 49 C25.52930277 50.15689908 24.06326012 49.79307254 20.52734375 49.0390625 C18.93116211 48.70261719 18.93116211 48.70261719 17.30273438 48.359375 C16.19220703 48.11703125 15.08167969 47.8746875 13.9375 47.625 C12.82310547 47.39039063 11.70871094 47.15578125 10.56054688 46.9140625 C2.3025959 45.15129795 2.3025959 45.15129795 0 44 C0 29.48 0 14.96 0 0 Z " fill="#FDFDFD" transform="translate(218,142)"/>
<path d="M0 0 C0.12359943 4.64467639 0.21433399 9.28839626 0.2746582 13.93432617 C0.2998033 15.51457389 0.33392474 17.09470529 0.37719727 18.67456055 C0.43785708 20.94609232 0.46620678 23.21608744 0.48828125 25.48828125 C0.51408768 26.19463211 0.5398941 26.90098297 0.56648254 27.6287384 C0.56762695 29.63012695 0.56762695 29.63012695 0 33 C-2.36767578 34.89428711 -2.36767578 34.89428711 -5 36 C-5.85980469 36.39703125 -6.71960938 36.7940625 -7.60546875 37.203125 C-8.45753906 37.54859375 -9.30960938 37.8940625 -10.1875 38.25 C-11.47720703 38.78367187 -11.47720703 38.78367187 -12.79296875 39.328125 C-15 40 -15 40 -17 39 C-17.07417023 34.49767666 -17.1286105 29.99570909 -17.16479492 25.49291992 C-17.17987936 23.96128139 -17.20034978 22.42968602 -17.22631836 20.89819336 C-17.26271847 18.69634346 -17.27972913 16.49506467 -17.29296875 14.29296875 C-17.30845261 13.60849167 -17.32393646 12.92401459 -17.33988953 12.21879578 C-17.34157015 7.4687169 -17.34157015 7.4687169 -15.62792969 5.1171875 C-13.52902382 3.67678659 -11.43223604 2.74257685 -9.0625 1.8125 C-8.20785156 1.46832031 -7.35320313 1.12414062 -6.47265625 0.76953125 C-4 0 -4 0 0 0 Z " fill="#FDFDFC" transform="translate(59,94)"/>
<path d="M0 0 C0 0.66 0 1.32 0 2 C-4.94434695 4.51694121 -9.87179857 6.99720638 -14.9921875 9.140625 C-22.66637274 12.42529573 -30.17415565 16.05468285 -37.625 19.8125 C-43.81655234 22.93498363 -50.04763529 25.96475794 -56.3125 28.9375 C-57.13121582 29.32719971 -57.94993164 29.71689941 -58.79345703 30.1184082 C-59.55899902 30.48023193 -60.32454102 30.84205566 -61.11328125 31.21484375 C-62.13095581 31.69618774 -62.13095581 31.69618774 -63.16918945 32.18725586 C-65 33 -65 33 -68 34 C-68 40.93 -68 47.86 -68 55 C-64.31899201 54.2637984 -61.86914399 53.64711991 -58.5703125 52.171875 C-57.70720459 51.79023193 -56.84409668 51.40858887 -55.95483398 51.01538086 C-55.02098877 50.59780518 -54.08714355 50.18022949 -53.125 49.75 C-51.07754344 48.84862199 -49.02932198 47.94898007 -46.98046875 47.05078125 C-45.87106934 46.56432129 -44.76166992 46.07786133 -43.61865234 45.57666016 C-37.59739536 42.95317631 -31.55874013 40.37181573 -25.50897217 37.81481934 C-24.13506407 37.23293552 -22.76220499 36.64856821 -21.39044189 36.06164551 C-19.4490977 35.23140516 -17.50435644 34.40966558 -15.55859375 33.58984375 C-14.43767334 33.11409912 -13.31675293 32.63835449 -12.16186523 32.14819336 C-9.08790614 31.03192206 -6.23581999 30.42243479 -3 30 C-3 30.66 -3 31.32 -3 32 C-3.79245117 32.3309668 -4.58490234 32.66193359 -5.40136719 33.00292969 C-21.35635959 39.67034526 -37.29208829 46.37773196 -53.17480469 53.21582031 C-54.26438477 53.6847168 -55.35396484 54.15361328 -56.4765625 54.63671875 C-57.42611816 55.04623779 -58.37567383 55.45575684 -59.35400391 55.87768555 C-60.22718262 56.24804932 -61.10036133 56.61841309 -62 57 C-62.8564209 57.37874268 -63.7128418 57.75748535 -64.59521484 58.14770508 C-67 59 -67 59 -71 59 C-71.05796132 54.89589245 -71.09358313 50.79188984 -71.125 46.6875 C-71.14175781 45.52025391 -71.15851563 44.35300781 -71.17578125 43.15039062 C-71.18222656 42.03212891 -71.18867187 40.91386719 -71.1953125 39.76171875 C-71.20578613 38.73006592 -71.21625977 37.69841309 -71.22705078 36.63549805 C-71 34 -71 34 -69 31 C-66.82373047 29.77661133 -66.82373047 29.77661133 -64.1171875 28.58203125 C-63.12348145 28.13674072 -62.12977539 27.6914502 -61.10595703 27.23266602 C-60.03974121 26.76401123 -58.97352539 26.29535645 -57.875 25.8125 C-55.66049157 24.81986231 -53.44694837 23.82506845 -51.234375 22.828125 C-50.15607422 22.34279297 -49.07777344 21.85746094 -47.96679688 21.35742188 C-44.30425923 19.68167226 -40.70777318 17.90113787 -37.125 16.0625 C-29.88964264 12.37745392 -22.54856376 8.92604567 -15.1875 5.5 C-14.03459473 4.95867432 -12.88168945 4.41734863 -11.69384766 3.85961914 C-10.61280762 3.35938232 -9.53176758 2.85914551 -8.41796875 2.34375 C-6.96040161 1.66602539 -6.96040161 1.66602539 -5.47338867 0.97460938 C-3 0 -3 0 0 0 Z " fill="#EDEDED" transform="translate(113,25)"/>
<path d="M0 0 C0 7.59 0 15.18 0 23 C-2.42493521 18.15012958 -3.19122585 14.66945555 -3.5625 9.3125 C-3.64628906 8.13300781 -3.73007813 6.95351562 -3.81640625 5.73828125 C-3.87699219 4.83464844 -3.93757813 3.93101562 -4 3 C-7.49001114 3.88961068 -10.46378179 4.65145816 -13.5 6.625 C-16.78486843 8.43167764 -19.27442328 8 -23 8 C-27.55837406 9.16436729 -30.33629213 10.0044382 -33 14 C-35.125 14.6875 -35.125 14.6875 -37 15 C-37.495 14.01 -37.495 14.01 -38 13 C-38.66 13.99 -39.32 14.98 -40 16 C-43.71640139 16.27028374 -46.457201 16.180933 -50 15 C-51.69514137 15.95093297 -53.36368108 16.95107762 -55 18 C-55.66 18 -56.32 18 -57 18 C-57.33 19.32 -57.66 20.64 -58 22 C-58.99 22 -59.98 22 -61 22 C-61 21.34 -61 20.68 -61 20 C-61.99 20 -62.98 20 -64 20 C-64.33 20.99 -64.66 21.98 -65 23 C-69.29 22.67 -73.58 22.34 -78 22 C-75.27715146 20.18476764 -73.46086026 19.40423744 -70.38696289 18.49121094 C-69.45070572 18.21041687 -68.51444855 17.9296228 -67.54981995 17.64031982 C-66.53435593 17.34135803 -65.51889191 17.04239624 -64.47265625 16.734375 C-63.41453232 16.41849426 -62.35640839 16.10261353 -61.26622009 15.77716064 C-57.86637123 14.76336405 -54.46449924 13.75655427 -51.0625 12.75 C-47.732974 11.75940123 -44.40386494 10.76741081 -41.07479858 9.77526855 C-38.88619499 9.12434197 -36.6969254 8.47565041 -34.50698853 7.82922363 C-29.35314074 6.30681502 -24.20982569 4.76167553 -19.08544922 3.14257812 C-18.16984726 2.85666809 -17.2542453 2.57075806 -16.31089783 2.27618408 C-14.61235407 1.744079 -12.91659311 1.20297068 -11.22438049 0.65106201 C-10.47285202 0.41719788 -9.72132355 0.18333374 -8.94702148 -0.05761719 C-8.30119614 -0.26489441 -7.65537079 -0.47217163 -6.98997498 -0.68572998 C-5 -1 -5 -1 0 0 Z " fill="#A362C4" transform="translate(121,184)"/>
<path d="M0 0 C9.42494214 -0.37084876 17.97244084 0.65047741 27.17578125 2.625 C28.46695358 2.89135254 29.75812592 3.15770508 31.08842468 3.43212891 C34.47565568 4.13102075 37.85949403 4.84511627 41.24279785 5.56274414 C44.71393759 6.29607487 48.18815005 7.01454312 51.66210938 7.734375 C58.44443504 9.14195461 65.22328317 10.56566644 72 12 C72.495 15.465 72.495 15.465 73 19 C72.01 17.515 72.01 17.515 71 16 C69.10022098 15.49556904 69.10022098 15.49556904 67 15.4375 C63.2074364 15.2074364 63.2074364 15.2074364 61 13 C59.05925139 13.27617533 59.05925139 13.27617533 57 14 C54.875 14.6875 54.875 14.6875 53 15 C52.34 14.34 51.68 13.68 51 13 C50.34 13.66 49.68 14.32 49 15 C47.62437146 13.71034824 46.29233607 12.37310707 45 11 C45 10.34 45 9.68 45 9 C44.443125 9.350625 43.88625 9.70125 43.3125 10.0625 C40.46113217 11.21845993 38.91482778 10.80967438 36 10 C36 9.01 36 8.02 36 7 C34.27119018 6.94550162 32.54187288 6.90698312 30.8125 6.875 C29.36810547 6.84019531 29.36810547 6.84019531 27.89453125 6.8046875 C24.87187222 7.0086456 22.73230015 7.73125368 20 9 C20 8.34 20 7.68 20 7 C15.60449331 5.5348311 12.37602147 6.32048522 7.96484375 7.58203125 C5.99751334 8.13545451 3.99880267 8.57402566 2 9 C0 7 0 7 -0.125 3.375 C-0.08375 2.26125 -0.0425 1.1475 0 0 Z " fill="#36AEC9" transform="translate(172,193)"/>
<path d="M0 0 C8.41915415 1.46457208 16.54303966 3.78030213 24.734375 6.18359375 C26.16513214 6.59991767 27.59600236 7.01585313 29.02697754 7.431427 C32.8223622 8.53478576 36.61625869 9.64317204 40.40974426 10.75304031 C46.65493552 12.57958499 52.90193028 14.39996357 59.14855194 16.22160912 C61.46213988 16.89650925 63.77553462 17.57206896 66.08892822 18.24763489 C74.70405391 20.76149891 83.32808626 23.23909708 91.96875 25.6640625 C93.76990037 26.17245299 95.57100954 26.68098946 97.37207031 27.18969727 C99.78732179 27.87166632 102.20326937 28.54967089 104.62341309 29.21408081 C106.75731094 29.80004223 108.8866905 30.40021033 111.015625 31.00390625 C112.73700684 31.48065796 112.73700684 31.48065796 114.49316406 31.96704102 C115.32041992 32.30791748 116.14767578 32.64879395 117 33 C117.33 33.99 117.66 34.98 118 36 C112.23227791 34.90048515 106.6038088 33.34081842 100.9375 31.8125 C99.77516846 31.49933838 98.61283691 31.18617676 97.4152832 30.86352539 C89.662332 28.75934303 81.95335249 26.54250845 74.26928711 24.20043945 C68.36410757 22.40087376 62.43957153 20.68242325 56.5 19 C48.66064776 16.77712817 40.84965898 14.4718309 33.04931641 12.1159668 C27.07401768 10.31382625 21.08322308 8.57940203 15.078125 6.87890625 C10.70528296 5.63031557 6.35074804 4.32326899 2 3 C1.67 3.66 1.34 4.32 1 5 C0.67 3.35 0.34 1.7 0 0 Z " fill="#E1E1E1" transform="translate(128,66)"/>
<path d="M0 0 C1.12048811 3.36146434 1.12939089 5.91957573 1.1328125 9.4609375 C1.13474609 11.37519531 1.13474609 11.37519531 1.13671875 13.328125 C1.13462402 13.99263672 1.1325293 14.65714844 1.13037109 15.34179688 C1.12503763 17.3607542 1.13031408 19.37948724 1.13671875 21.3984375 C1.13542969 22.6771875 1.13414063 23.9559375 1.1328125 25.2734375 C1.13168457 26.44310059 1.13055664 27.61276367 1.12939453 28.81787109 C1.01341572 31.67007461 0.65530746 34.2284464 0 37 C-0.33 37 -0.66 37 -1 37 C-1.66 26.44 -2.32 15.88 -3 5 C-6.42298577 6.14099526 -7.14758766 7.00085621 -9 10 C-9 10.99 -9 11.98 -9 13 C-9.66 13 -10.32 13 -11 13 C-11.66 12.01 -12.32 11.02 -13 10 C-13.66 10.33 -14.32 10.66 -15 11 C-15.66 10.67 -16.32 10.34 -17 10 C-17 10.66 -17 11.32 -17 12 C-17.58007812 12.09796875 -18.16015625 12.1959375 -18.7578125 12.296875 C-24.06374741 13.31253251 -27.57040615 14.7784772 -32 18 C-36.9167243 20.32178648 -41.88898563 20.76633003 -47.234375 21.4375 C-48.14703125 21.623125 -49.0596875 21.80875 -50 22 C-50.33 22.66 -50.66 23.32 -51 24 C-51.66 23.34 -52.32 22.68 -53 22 C-39.03431026 15.81507237 -25.0543573 9.67903862 -10.94824219 3.8203125 C-8.98934919 2.99551545 -7.04625798 2.13887974 -5.1015625 1.28125 C-2 0 -2 0 0 0 Z " fill="#D69683" transform="translate(120,67)"/>
<path d="M0 0 C6.54549161 0.52965517 12.24524079 1.78748161 18.4375 3.9375 C19.23865234 4.20240234 20.03980469 4.46730469 20.86523438 4.74023438 C26.732103 6.732103 26.732103 6.732103 29 9 C29.22705078 11.52197266 29.22705078 11.52197266 29.1953125 14.6640625 C29.18886719 15.78554687 29.18242187 16.90703125 29.17578125 18.0625 C29.15902344 19.238125 29.14226562 20.41375 29.125 21.625 C29.11597656 22.80835937 29.10695312 23.99171875 29.09765625 25.2109375 C29.07402812 28.14082523 29.04108514 31.0703134 29 34 C24.79534216 35.17202837 22.04131543 34.74588039 17.87109375 33.55859375 C16.67967773 33.22496826 15.48826172 32.89134277 14.26074219 32.54760742 C12.99907227 32.18127197 11.73740234 31.81493652 10.4375 31.4375 C9.1359325 31.06614548 7.83417315 30.69546275 6.53222656 30.32543945 C3.92228522 29.58124542 1.3146366 28.82965813 -1.29150391 28.07226562 C-4.63067016 27.10678714 -7.97548559 26.16598965 -11.32421875 25.234375 C-13.1331634 24.71998241 -14.94178353 24.20444651 -16.75 23.6875 C-17.58217041 23.45796631 -18.41434082 23.22843262 -19.27172852 22.99194336 C-21.21149009 22.42264967 -23.11245625 21.72384313 -25 21 C-25.33 20.01 -25.66 19.02 -26 18 C-19.23477136 19.24463547 -12.6774028 20.84764127 -6.08984375 22.8203125 C-5.19632706 23.08383514 -4.30281036 23.34735779 -3.38221741 23.61886597 C-0.56608105 24.45015027 2.24827372 25.28727458 5.0625 26.125 C7.90916577 26.96879448 10.75618914 27.81135666 13.60362244 28.65255737 C15.36696673 29.17386358 17.12981056 29.69686621 18.8921051 30.22171021 C22.39074291 31.45371241 22.39074291 31.45371241 26 32 C26 24.74 26 17.48 26 10 C24.20691406 9.44570313 22.41382813 8.89140625 20.56640625 8.3203125 C18.2316455 7.58894166 15.89701683 6.85714907 13.5625 6.125 C12.37849609 5.76019531 11.19449219 5.39539062 9.97460938 5.01953125 C8.28754883 4.48779297 8.28754883 4.48779297 6.56640625 3.9453125 C5.52427979 3.62062988 4.48215332 3.29594727 3.40844727 2.96142578 C1 2 1 2 0 0 Z " fill="#F3F3F3" transform="translate(218,50)"/>
<path d="M0 0 C0 15.51 0 31.02 0 47 C-2.56377015 44.43622985 -2.23740266 42.75500497 -2.25224304 39.26042175 C-2.24146477 38.08543877 -2.24146477 38.08543877 -2.23046875 36.88671875 C-2.23001053 36.08015335 -2.22955231 35.27358795 -2.2290802 34.44258118 C-2.22605611 32.73359713 -2.21816512 31.02461589 -2.20581055 29.31567383 C-2.18764558 26.70839586 -2.18530027 24.10147504 -2.18554688 21.49414062 C-2.18062793 19.83333028 -2.17479798 18.17252234 -2.16796875 16.51171875 C-2.16685593 15.73446945 -2.1657431 14.95722015 -2.16459656 14.15641785 C-2.13122616 10.31750472 -1.92832884 6.73229864 -1 3 C-8.649853 5.38182236 -15.98192057 8.20471397 -23.32421875 11.40625 C-27.23812109 13.11135836 -31.17289157 14.760534 -35.125 16.375 C-36.95417969 17.12910156 -36.95417969 17.12910156 -38.8203125 17.8984375 C-42 19 -42 19 -46 19 C-46 19.66 -46 20.32 -46 21 C-46.82177734 21.22042969 -46.82177734 21.22042969 -47.66015625 21.4453125 C-53.89543352 23.20943973 -59.84084638 25.45545067 -65.82055664 27.93017578 C-68.8489609 29.17653414 -71.78620449 30.33786123 -75 31 C-75 30.01 -75 29.02 -75 28 C-74.46891632 27.79670074 -73.93783264 27.59340149 -73.39065552 27.38394165 C-68.79446276 25.62447738 -64.19834222 23.86482467 -59.60229492 22.10498047 C-55.2797305 20.44986254 -50.95694774 18.79531653 -46.6340332 17.14111328 C-32.88905834 11.88049378 -32.88905834 11.88049378 -19.16015625 6.578125 C-17.95020996 6.10938965 -16.74026367 5.6406543 -15.49365234 5.15771484 C-13.34052612 4.32234893 -11.1884501 3.48426943 -9.03759766 2.64306641 C-8.11124512 2.28390137 -7.18489258 1.92473633 -6.23046875 1.5546875 C-5.45082764 1.25030762 -4.67118652 0.94592773 -3.86791992 0.63232422 C-2 0 -2 0 0 0 Z " fill="#E9E9E9" transform="translate(120,119)"/>
<path d="M0 0 C1.54300781 0.45826172 1.54300781 0.45826172 3.1171875 0.92578125 C29.16579648 8.55502083 55.52027884 15.19173563 81.86621094 21.70751953 C90.96168722 23.96546806 99.99207258 26.41663091 109 29 C110.32678584 29.37903605 111.6536073 29.75794744 112.98046875 30.13671875 C113.97691406 30.42160156 114.97335938 30.70648438 116 31 C116.33 29.68 116.66 28.36 117 27 C117 28.98 117 30.96 117 33 C111.0631817 32.47960442 105.46886804 31.52679762 99.72265625 29.9609375 C98.96221512 29.75930496 98.20177399 29.55767242 97.41828918 29.34992981 C94.96467994 28.69773891 92.51362306 28.0364668 90.0625 27.375 C88.35383026 26.91910813 86.6450071 26.46379092 84.93603516 26.0090332 C79.95499002 24.68143328 74.97703132 23.34255919 70 22 C69.31810608 21.8161676 68.63621216 21.63233521 67.93365479 21.44293213 C62.87078684 20.07780698 57.80830238 18.7112662 52.74707031 17.34008789 C45.47303133 15.37595644 38.17717002 13.51666465 30.86352539 11.70629883 C20.47174207 9.13331002 10.11075202 6.54763229 0 3 C0 2.01 0 1.02 0 0 Z " fill="#D6D6D7" transform="translate(129,101)"/>
<path d="M0 0 C0.66 0 1.32 0 2 0 C2 7.92 2 15.84 2 24 C-3.36089256 24 -7.75718915 23.88508308 -12.93505859 23.09790039 C-13.57674988 23.00197098 -14.21844116 22.90604156 -14.87957764 22.8072052 C-16.97011902 22.49313414 -19.05925415 22.17062703 -21.1484375 21.84765625 C-22.61188493 21.62542941 -24.07539726 21.40362955 -25.53897095 21.18223572 C-28.59052309 20.71934422 -31.64142783 20.25246096 -34.69189453 19.7824707 C-38.60504469 19.17973188 -42.51940485 18.58532793 -46.43424034 17.99364567 C-49.44915377 17.53735658 -52.46353068 17.07760464 -55.47774124 16.61669731 C-56.92173717 16.39614875 -58.36586707 16.1764755 -59.81013107 15.95768929 C-61.82104198 15.65235235 -63.83119642 15.34204584 -65.84130859 15.03149414 C-66.98522064 14.85606583 -68.12913269 14.68063751 -69.30770874 14.49989319 C-72 14 -72 14 -74 13 C-74 12.34 -74 11.68 -74 11 C-73.3702124 11.09087891 -72.7404248 11.18175781 -72.09155273 11.27539062 C-69.20756554 11.68863762 -66.32256837 12.09437291 -63.4375 12.5 C-61.9515332 12.71462891 -61.9515332 12.71462891 -60.43554688 12.93359375 C-55.23532412 13.65920623 -50.25047582 14.17673411 -45 14 C-45 14.66 -45 15.32 -45 16 C-44.01 15.67 -43.02 15.34 -42 15 C-42 14.34 -42 13.68 -42 13 C-41.01 12.67 -40.02 12.34 -39 12 C-38.319375 12.99 -38.319375 12.99 -37.625 14 C-37.08875 14.66 -36.5525 15.32 -36 16 C-35.34 16 -34.68 16 -34 16 C-33.67 14.68 -33.34 13.36 -33 12 C-32.34 12.99 -31.68 13.98 -31 15 C-31.33 15.99 -31.66 16.98 -32 18 C-30.48019531 17.9690625 -30.48019531 17.9690625 -28.9296875 17.9375 C-24.07674334 18.014684 -19.47605774 18.77841422 -14.6953125 19.5625 C-10.4903971 20.06033354 -6.23428291 20 -2 20 C-1.34 13.4 -0.68 6.8 0 0 Z " fill="#4B3776" transform="translate(245,228)"/>
<path d="M0 0 C11.06705527 -0.02330741 22.13410457 -0.04100796 33.2011795 -0.05181217 C38.3416481 -0.05700112 43.48209975 -0.06402512 48.62255859 -0.07543945 C53.59575056 -0.08641158 58.56892636 -0.09230676 63.54212952 -0.09487724 C65.42684686 -0.09670595 67.31156346 -0.10027606 69.1962738 -0.10573006 C80.51071283 -0.13712986 91.71593814 0.12476696 103 1 C103 1.33 103 1.66 103 2 C91.37343876 3.07442406 79.82913751 3.13043467 68.1640625 3.09765625 C66.18867021 3.09578683 64.21327745 3.09436541 62.23788452 3.09336853 C57.08580198 3.08958457 51.93374847 3.0797904 46.78167725 3.06866455 C41.50549716 3.05836091 36.22931229 3.05385189 30.953125 3.04882812 C20.63540404 3.03816366 10.31770445 3.02113793 0 3 C0 2.01 0 1.02 0 0 Z " fill="#F3F3F3" transform="translate(129,292)"/>
<path d="M0 0 C0.33 0 0.66 0 1 0 C1.02467332 5.80240568 1.04284724 11.60478098 1.05493164 17.40722656 C1.0599681 19.38216687 1.06679751 21.35710343 1.07543945 23.33203125 C1.08753508 26.16667605 1.0932351 29.00127166 1.09765625 31.8359375 C1.10281754 32.72243988 1.10797882 33.60894226 1.11329651 34.52230835 C1.11387171 40.77225659 1.11387171 40.77225659 0 43 C-6.99365488 42.43617776 -13.76100843 41.37639601 -20.625 39.9375 C-21.53378906 39.75123047 -22.44257813 39.56496094 -23.37890625 39.37304688 C-25.5869003 38.91982704 -27.79385124 38.46210307 -30 38 C-26.25712373 35.86818786 -24.21015871 36.04314575 -20 37 C-19.67 36.01 -19.34 35.02 -19 34 C-14.25 33.875 -14.25 33.875 -12 35 C-11.38125 34.835 -10.7625 34.67 -10.125 34.5 C-7.71114731 33.93203466 -6.33160767 34.25055468 -4 35 C-0.6469071 31.45563638 -0.5861961 28.60636946 -0.48828125 23.828125 C-0.47033005 23.1457074 -0.45237885 22.46328979 -0.43388367 21.76019287 C-0.37989617 19.5901906 -0.34592417 17.42040675 -0.3125 15.25 C-0.27931648 13.77470926 -0.24482585 12.29944731 -0.20898438 10.82421875 C-0.12417842 7.21635573 -0.05731163 3.60841638 0 0 Z " fill="#773E7C" transform="translate(213,142)"/>
<path d="M0 0 C8.53274401 0.90387036 16.91945149 3.43207285 25.1875 5.625 C27.0447168 6.11226563 27.0447168 6.11226563 28.93945312 6.609375 C31.96062299 7.4025779 34.98075248 8.19951708 38 9 C38 9.66 38 10.32 38 11 C38.99 11.33 39.98 11.66 41 12 C37.87341894 13.56329053 35.4112794 12.37838897 32.0625 11.625 C30.81597656 11.34914062 29.56945312 11.07328125 28.28515625 10.7890625 C25 10 25 10 22 9 C21.01 9.33 20.02 9.66 19 10 C16 10 16 10 13.4375 9.4375 C11.00235139 8.74957739 11.00235139 8.74957739 9 10 C9.66 8.35 10.32 6.7 11 5 C9.52093108 4.97310784 8.04172517 4.95365379 6.5625 4.9375 C5.73878906 4.92589844 4.91507813 4.91429688 4.06640625 4.90234375 C2.00836062 4.76732652 2.00836062 4.76732652 1 6 C0.84379445 7.41327947 0.74943827 8.8335459 0.68359375 10.25390625 C0.64169922 11.10791016 0.59980469 11.96191406 0.55664062 12.84179688 C0.51732422 13.73962891 0.47800781 14.63746094 0.4375 15.5625 C0.39431641 16.46419922 0.35113281 17.36589844 0.30664062 18.29492188 C0.20021858 20.52978485 0.09820012 22.76476308 0 25 C-0.33 25 -0.66 25 -1 25 C-1.02886984 21.02084841 -1.04675406 17.04172347 -1.0625 13.0625 C-1.07087891 11.92619141 -1.07925781 10.78988281 -1.08789062 9.61914062 C-1.09111328 8.53955078 -1.09433594 7.45996094 -1.09765625 6.34765625 C-1.10289307 5.34742432 -1.10812988 4.34719238 -1.11352539 3.31665039 C-1 1 -1 1 0 0 Z " fill="#A34263" transform="translate(129,118)"/>
<path d="M0 0 C0.66 0 1.32 0 2 0 C2 9.24 2 18.48 2 28 C-0.79216173 29.39608086 -2.08995542 28.59688102 -5.06640625 27.7421875 C-6.10224854 27.44836182 -7.13809082 27.15453613 -8.20532227 26.85180664 C-9.31319092 26.52946045 -10.42105957 26.20711426 -11.5625 25.875 C-12.68390381 25.5545874 -13.80530762 25.2341748 -14.96069336 24.90405273 C-18.30964617 23.94450651 -21.65532688 22.97434863 -25 22 C-25.9384375 21.72720215 -26.876875 21.4544043 -27.84375 21.17333984 C-32.56717958 19.79774768 -37.28586586 18.40710744 -42 17 C-42 16.34 -42 15.68 -42 15 C-42.99 14.67 -43.98 14.34 -45 14 C-39.32800283 14.58623647 -34.09821749 15.64817801 -28.6328125 17.25 C-27.87201385 17.46817383 -27.11121521 17.68634766 -26.32736206 17.91113281 C-24.7350131 18.36894926 -23.14347531 18.82959588 -21.55273438 19.29296875 C-19.11244007 20.00365784 -16.66977693 20.70567269 -14.2265625 21.40625 C-12.6743358 21.85366958 -11.1222473 22.30156898 -9.5703125 22.75 C-8.84014923 22.96043945 -8.10998596 23.17087891 -7.35769653 23.38769531 C-2.23460184 24.88269908 -2.23460184 24.88269908 0 26 C0 17.42 0 8.84 0 0 Z " fill="#F1F1F2" transform="translate(183,39)"/>
<path d="M0 0 C0 0.66 0 1.32 0 2 C-1.18867676 2.4964502 -1.18867676 2.4964502 -2.40136719 3.00292969 C-18.35635959 9.67034526 -34.29208829 16.37773196 -50.17480469 23.21582031 C-51.26438477 23.6847168 -52.35396484 24.15361328 -53.4765625 24.63671875 C-54.42611816 25.04623779 -55.37567383 25.45575684 -56.35400391 25.87768555 C-57.22718262 26.24804932 -58.10036133 26.61841309 -59 27 C-59.8770459 27.37874268 -60.7540918 27.75748535 -61.65771484 28.14770508 C-64 29 -64 29 -67 29 C-67 28.34 -67 27.68 -67 27 C-42.02175327 15.87292831 -42.02175327 15.87292831 -31.69140625 12.03515625 C-28.02176128 10.62375434 -24.47457424 8.98366369 -20.90625 7.3359375 C-17.47083828 5.75675631 -14.02430224 4.20785272 -10.5625 2.6875 C-9.40878906 2.17574219 -8.25507812 1.66398437 -7.06640625 1.13671875 C-4 0 -4 0 0 0 Z " fill="#E5E5E5" transform="translate(110,55)"/>
<path d="M0 0 C0.66644531 0.06058594 1.33289063 0.12117187 2.01953125 0.18359375 C3.95946556 0.35995141 5.89958447 0.53428558 7.83984375 0.70703125 C9.8959881 0.89765032 11.95086864 1.10262952 14.00390625 1.32421875 C14.95136719 1.42347656 15.89882812 1.52273437 16.875 1.625 C17.73867187 1.72039062 18.60234375 1.81578125 19.4921875 1.9140625 C22.1554909 2.00532835 24.41623919 1.62047303 27 1 C27.33 1.99 27.66 2.98 28 4 C29.134375 4.103125 30.26875 4.20625 31.4375 4.3125 C35.41510402 4.80269768 38.92855927 5.89877939 42.69140625 7.2421875 C45.76658949 8.25163851 48.8771455 8.87473168 52.0546875 9.47265625 C54 10 54 10 57 12 C50.58056118 12.22772608 44.79545339 11.38785547 38.515625 10.1015625 C37.53760925 9.90654144 36.55959351 9.71152039 35.55194092 9.5105896 C33.4972582 9.09899233 31.44332952 8.68361468 29.39013672 8.26464844 C26.24773183 7.62453797 23.10268402 6.99893113 19.95703125 6.375 C17.95555649 5.97221126 15.95424822 5.56859415 13.953125 5.1640625 C13.01454651 4.97752106 12.07596802 4.79097961 11.10894775 4.5987854 C10.23413757 4.41874969 9.35932739 4.23871399 8.45800781 4.05322266 C7.69159973 3.89777985 6.92519165 3.74233704 6.13555908 3.58218384 C3.90335157 2.97365226 2.02923346 2.10124571 0 1 C0 0.67 0 0.34 0 0 Z " fill="#5A2760" transform="translate(130,167)"/>
<path d="M0 0 C0 7.59 0 15.18 0 23 C-2.42493521 18.15012958 -3.19122585 14.66945555 -3.5625 9.3125 C-3.64628906 8.13300781 -3.73007813 6.95351562 -3.81640625 5.73828125 C-3.87699219 4.83464844 -3.93757813 3.93101562 -4 3 C-8.87382199 4.20587022 -8.87382199 4.20587022 -13.25 6.5625 C-16.80262033 8.41955154 -19.91260103 8.33304647 -23.8125 8.1875 C-24.85180664 8.16719727 -24.85180664 8.16719727 -25.91210938 8.14648438 C-27.60841265 8.11138845 -29.30431136 8.05758943 -31 8 C-26.56741539 5.04494359 -21.69190482 3.86556235 -16.625 2.3125 C-15.5834375 1.97927734 -14.541875 1.64605469 -13.46875 1.30273438 C-12.46070312 0.99271484 -11.45265625 0.68269531 -10.4140625 0.36328125 C-9.4957666 0.07751221 -8.5774707 -0.20825684 -7.63134766 -0.50268555 C-5 -1 -5 -1 0 0 Z " fill="#A66ABC" transform="translate(121,184)"/>
<path d="M0 0 C21.43209877 1.43209877 21.43209877 1.43209877 25 5 C25.08874135 8.10251201 25.11518455 11.1826812 25.09765625 14.28515625 C25.0962413 15.21597519 25.09482635 16.14679413 25.09336853 17.1058197 C25.08775172 20.09141191 25.0751964 23.07693029 25.0625 26.0625 C25.05748716 28.08137913 25.05292388 30.10025943 25.04882812 32.11914062 C25.03777683 37.07945572 25.02050095 42.03971532 25 47 C24.34 47 23.68 47 23 47 C23 33.47 23 19.94 23 6 C22.01 6.33 21.02 6.66 20 7 C18.08984375 6.51171875 18.08984375 6.51171875 15.9375 5.6875 C11.65731618 4.14129238 7.45524681 3.2543224 2.96875 2.52734375 C2.3190625 2.35332031 1.669375 2.17929688 1 2 C0.67 1.34 0.34 0.68 0 0 Z " fill="#F1F6F8" transform="translate(141,185)"/>
<path d="M0 0 C3.13563907 4.7034586 3.12658387 9.44445488 3.1328125 14.984375 C3.13410156 16.08394531 3.13539062 17.18351562 3.13671875 18.31640625 C3.13285156 19.44949219 3.12898438 20.58257812 3.125 21.75 C3.12886719 22.89855469 3.13273437 24.04710937 3.13671875 25.23046875 C3.13542969 26.32488281 3.13414063 27.41929687 3.1328125 28.546875 C3.13112061 30.04492676 3.13112061 30.04492676 3.12939453 31.57324219 C3 34 3 34 2 36 C2.54527344 35.855625 3.09054688 35.71125 3.65234375 35.5625 C9.24959924 34.18471403 14.23945745 33.81712563 20 34 C16.41564563 36.38956958 13.02997277 36.94632296 8.875 37.6875 C8.13378906 37.82994141 7.39257812 37.97238281 6.62890625 38.11914062 C4.76103382 38.46232377 2.88084104 38.73701887 1 39 C0 38 0 38 -0.11352539 34.39819336 C-0.11336625 32.79540144 -0.10767063 31.1926044 -0.09765625 29.58984375 C-0.0962413 28.74780899 -0.09482635 27.90577423 -0.09336853 27.03822327 C-0.08775263 24.33794665 -0.07519748 21.63775172 -0.0625 18.9375 C-0.05748705 17.11132932 -0.05292379 15.28515734 -0.04882812 13.45898438 C-0.03777804 8.97262458 -0.02050279 4.48632616 0 0 Z " fill="#493498" transform="translate(42,213)"/>
<path d="M0 0 C10.1398917 1.12665463 10.1398917 1.12665463 13.52734375 2.12109375 C14.25630859 2.33443359 14.98527344 2.54777344 15.73632812 2.76757812 C16.8259082 3.09918945 16.8259082 3.09918945 17.9375 3.4375 C18.69095703 3.65470703 19.44441406 3.87191406 20.22070312 4.09570312 C25.7415896 5.7415896 25.7415896 5.7415896 28 8 C28.14507695 10.74485593 28.18652423 13.38480543 28.125 16.125 C28.11597656 16.87910156 28.10695312 17.63320312 28.09765625 18.41015625 C28.0740687 20.27357254 28.03819719 22.13682593 28 24 C27.67 24 27.34 24 27 24 C26.67 19.05 26.34 14.1 26 9 C24.1025 8.5875 22.205 8.175 20.25 7.75 C13.56479312 6.29669416 7.6203753 4.20679177 1 2 C1 15.53 1 29.06 1 43 C0.67 43 0.34 43 0 43 C0 28.81 0 14.62 0 0 Z " fill="#E3E0E3" transform="translate(218,142)"/>
<path d="M0 0 C0.33 0.66 0.66 1.32 1 2 C1.66 2.33 2.32 2.66 3 3 C3 11.58 3 20.16 3 29 C6.3 28.34 9.6 27.68 13 27 C15.33226275 26.92932537 17.66886896 26.89864648 20 27 C16.91002444 29.05998371 14.01967556 30.28294093 10.5625 31.625 C8.86287109 32.29402344 8.86287109 32.29402344 7.12890625 32.9765625 C4 34 4 34 0 34 C0 22.78 0 11.56 0 0 Z " fill="#F4D5A0" transform="translate(63,91)"/>
<path d="M0 0 C6.99365488 0.56382224 13.76100843 1.62360399 20.625 3.0625 C21.53378906 3.24876953 22.44257813 3.43503906 23.37890625 3.62695312 C25.5869003 4.08017296 27.79385124 4.53789693 30 5 C30.33 7.31 30.66 9.62 31 12 C30.34 11.01 29.68 10.02 29 9 C27.10022098 8.49556904 27.10022098 8.49556904 25 8.4375 C21.2074364 8.2074364 21.2074364 8.2074364 19 6 C17.05925139 6.27617533 17.05925139 6.27617533 15 7 C12.875 7.6875 12.875 7.6875 11 8 C10.34 7.34 9.68 6.68 9 6 C8.34 6.66 7.68 7.32 7 8 C5.62437146 6.71034824 4.29233607 5.37310707 3 4 C3 3.34 3 2.68 3 2 C2.01 1.34 1.02 0.68 0 0 Z " fill="#2DA4C4" transform="translate(214,200)"/>
<path d="M0 0 C1.12048811 3.36146434 1.12939089 5.91957573 1.1328125 9.4609375 C1.13474609 11.37519531 1.13474609 11.37519531 1.13671875 13.328125 C1.13357666 14.32489258 1.13357666 14.32489258 1.13037109 15.34179688 C1.12503763 17.3607542 1.13031408 19.37948724 1.13671875 21.3984375 C1.13542969 22.6771875 1.13414063 23.9559375 1.1328125 25.2734375 C1.13168457 26.44310059 1.13055664 27.61276367 1.12939453 28.81787109 C1.01341572 31.67007461 0.65530746 34.2284464 0 37 C-0.33 37 -0.66 37 -1 37 C-1.66 26.44 -2.32 15.88 -3 5 C-4.98 5.66 -6.96 6.32 -9 7 C-9 5.68 -9 4.36 -9 3 C-2.25 0 -2.25 0 0 0 Z " fill="#E6A195" transform="translate(120,67)"/>
<path d="M0 0 C7.11341265 -0.45164525 11.71546794 0.67202085 18 4 C14.93946766 6.04035489 13.52755341 6.37287939 10 7 C8.60384107 7.39468339 7.20802589 7.79058412 5.8125 8.1875 C4.554375 8.455625 3.29625 8.72375 2 9 C0 7 0 7 -0.125 3.375 C-0.08375 2.26125 -0.0425 1.1475 0 0 Z " fill="#21BCD4" transform="translate(172,193)"/>
<path d="M0 0 C0.33 0 0.66 0 1 0 C1.68112481 7.67481705 2.1047447 15.29707845 2.125 23 C2.12951172 23.70503662 2.13402344 24.41007324 2.13867188 25.13647461 C2.12708005 29.19409777 1.78366889 33.01945963 1 37 C0.34 37 -0.32 37 -1 37 C-1.0246501 31.89136104 -1.04283607 26.78275641 -1.05493164 21.67407227 C-1.05997204 19.93480832 -1.0668043 18.19554864 -1.07543945 16.45629883 C-1.08751792 13.96174063 -1.09323108 11.46723827 -1.09765625 8.97265625 C-1.10281754 8.19036148 -1.10797882 7.40806671 -1.11329651 6.60206604 C-1.11349226 4.73432886 -1.06199694 2.86670796 -1 1 C-0.67 0.67 -0.34 0.34 0 0 Z " fill="#F6F6F6" transform="translate(119,254)"/>
<path d="M0 0 C1.52519276 0.08937803 3.04681929 0.24537146 4.5625 0.4375 C5.80193359 0.59025391 5.80193359 0.59025391 7.06640625 0.74609375 C7.70449219 0.82988281 8.34257812 0.91367188 9 1 C9 1.33 9 1.66 9 2 C6.36 2 3.72 2 1 2 C1.15597656 3.27617187 1.31195313 4.55234375 1.47265625 5.8671875 C1.66958828 7.53642091 1.86618554 9.20569384 2.0625 10.875 C2.16626953 11.71675781 2.27003906 12.55851563 2.37695312 13.42578125 C2.47041016 14.23144531 2.56386719 15.03710938 2.66015625 15.8671875 C2.74918213 16.61081543 2.83820801 17.35444336 2.92993164 18.12060547 C3 20 3 20 2 22 C1.7724985 23.87056791 1.59037189 25.74685958 1.4375 27.625 C1.31181641 29.12933594 1.31181641 29.12933594 1.18359375 30.6640625 C1.12300781 31.43492187 1.06242188 32.20578125 1 33 C0.34 33 -0.32 33 -1 33 C-1.02465392 28.46102295 -1.04283789 23.92208457 -1.05493164 19.38305664 C-1.0599714 17.83780234 -1.0668032 16.29255284 -1.07543945 14.74731445 C-1.08752076 12.53074971 -1.09323173 10.31424782 -1.09765625 8.09765625 C-1.10281754 7.4028566 -1.10797882 6.70805695 -1.11329651 5.99220276 C-1.11349277 4.3277067 -1.06189129 2.66334501 -1 1 C-0.67 0.67 -0.34 0.34 0 0 Z " fill="#489EB8" transform="translate(171,191)"/>
<path d="M0 0 C0.66 0.33 1.32 0.66 2 1 C2 2.32 2 3.64 2 5 C-2.32034642 6.02832709 -6.64358716 7.04311153 -10.9699707 8.0456543 C-12.44023336 8.38833249 -13.90965328 8.73464821 -15.37817383 9.0847168 C-17.49347384 9.58829144 -19.61149467 10.07855478 -21.73046875 10.56640625 C-23.00301514 10.86490479 -24.27556152 11.16340332 -25.58666992 11.47094727 C-28.82165261 11.97235686 -30.88667797 11.89732339 -34 11 C-31.36059663 9.58330465 -28.99553736 8.65361118 -26.0625 8.0625 C-23.28322248 7.48826911 -20.52628794 6.88372001 -17.76953125 6.20703125 C-12.05968823 4.80749551 -6.8865135 3.58931301 -1 4 C-0.67 2.68 -0.34 1.36 0 0 Z " fill="#372997" transform="translate(97,235)"/>
<path d="M0 0 C0.6297876 0.09087891 1.2595752 0.18175781 1.90844727 0.27539062 C4.79243446 0.68863762 7.67743163 1.09437291 10.5625 1.5 C12.0484668 1.71462891 12.0484668 1.71462891 13.56445312 1.93359375 C18.76467588 2.65920623 23.74952418 3.17673411 29 3 C29 3.66 29 4.32 29 5 C29.99 4.67 30.98 4.34 32 4 C32 3.34 32 2.68 32 2 C32.99 1.67 33.98 1.34 35 1 C35.66 2.65 36.32 4.3 37 6 C30.5195249 9.24023755 18.34233596 5.54155058 11.3125 4.5 C10.4270752 4.36948242 9.54165039 4.23896484 8.62939453 4.10449219 C7.79907715 3.97719727 6.96875977 3.84990234 6.11328125 3.71875 C4.99626831 3.54762695 4.99626831 3.54762695 3.85668945 3.37304688 C2 3 2 3 0 2 C0 1.34 0 0.68 0 0 Z " fill="#4F4581" transform="translate(171,239)"/>
<path d="M0 0 C-3 2 -3 2 -5 2 C-5.33 3.32 -5.66 4.64 -6 6 C-6.99 6 -7.98 6 -9 6 C-9 5.34 -9 4.68 -9 4 C-9.99 4 -10.98 4 -12 4 C-12.33 4.99 -12.66 5.98 -13 7 C-17.29 6.67 -21.58 6.34 -26 6 C-18.34613494 0.8974233 -9.05959311 -0.73621976 0 0 Z " fill="#965EC4" transform="translate(69,200)"/>
<path d="M0 0 C3.00085254 0.28435498 6.00046906 0.57726878 9 0.875 C9.83917969 0.95363281 10.67835938 1.03226562 11.54296875 1.11328125 C16.86599475 1.64971023 21.84088756 2.5788556 27 4 C27 4.66 27 5.32 27 6 C27.99 6.33 28.98 6.66 30 7 C26.87341894 8.56329053 24.4112794 7.37838897 21.0625 6.625 C19.81597656 6.34914062 18.56945312 6.07328125 17.28515625 5.7890625 C14 5 14 5 11 4 C10.01 4.33 9.02 4.66 8 5 C5 5 5 5 2.4375 4.4375 C0.00235139 3.74957739 0.00235139 3.74957739 -2 5 C-1.34 3.35 -0.68 1.7 0 0 Z " fill="#9D3860" transform="translate(140,123)"/>
<path d="M0 0 C0.66644531 0.06058594 1.33289063 0.12117187 2.01953125 0.18359375 C3.95946556 0.35995141 5.89958447 0.53428558 7.83984375 0.70703125 C9.8959881 0.89765032 11.95086864 1.10262952 14.00390625 1.32421875 C14.95136719 1.42347656 15.89882812 1.52273437 16.875 1.625 C17.73867187 1.72039062 18.60234375 1.81578125 19.4921875 1.9140625 C22.1554909 2.00532835 24.41623919 1.62047303 27 1 C27.33 1.99 27.66 2.98 28 4 C30.01508358 4.73323796 30.01508358 4.73323796 32 5 C32 5.33 32 5.66 32 6 C31.29875 5.9278125 30.5975 5.855625 29.875 5.78125 C25.55992315 5.35912292 21.40271562 4.98721538 17.0625 5.125 C11.60136052 5.21601899 6.13029864 3.78944817 1 2 C0.67 1.34 0.34 0.68 0 0 Z " fill="#612B62" transform="translate(130,167)"/>
<path d="M0 0 C0.33 0 0.66 0 1 0 C2.06309567 5.17317421 2.11693938 10.12369336 2.0625 15.375 C2.05798828 16.20644531 2.05347656 17.03789062 2.04882812 17.89453125 C2.03713164 19.92971897 2.01919935 21.96486923 2 24 C-1.90633137 25.30211046 -4.19538173 24.47812346 -8.1875 23.5625 C-9.45980469 23.27503906 -10.73210937 22.98757812 -12.04296875 22.69140625 C-13.01878906 22.46324219 -13.99460938 22.23507813 -15 22 C-15 21.34 -15 20.68 -15 20 C-10.2982579 20.56745163 -5.67755138 21.2204081 -1 22 C-0.67 14.74 -0.34 7.48 0 0 Z " fill="#F2F4F4" transform="translate(245,167)"/>
<path d="M0 0 C2.97 0.495 2.97 0.495 6 1 C6 1.66 6 2.32 6 3 C6.66 3.33 7.32 3.66 8 4 C6.4473205 4.72960862 4.88226957 5.43292641 3.3125 6.125 C2.00732422 6.71667969 2.00732422 6.71667969 0.67578125 7.3203125 C-2.60456985 8.15356957 -4.04438128 7.52307559 -7 6 C-6.67 4.68 -6.34 3.36 -6 2 C-2.25 0.875 -2.25 0.875 0 2 C0 1.34 0 0.68 0 0 Z " fill="#F3C28A" transform="translate(103,104)"/>
<path d="M0 0 C8.1698614 1.43066697 16.05394988 3.64137417 24 6 C24 6.66 24 7.32 24 8 C25.98 8.66 27.96 9.32 30 10 C25.95776193 12.02111903 20.51871823 9.0592291 16.3684082 7.82226562 C14.4454786 7.25236463 12.51729202 6.7037795 10.58789062 6.15625 C9.38197266 5.80046875 8.17605469 5.4446875 6.93359375 5.078125 C5.82040771 4.75231445 4.70722168 4.42650391 3.56030273 4.09082031 C2.29295288 3.55086426 2.29295288 3.55086426 1 3 C0.67 2.01 0.34 1.02 0 0 Z " fill="#F4F4F5" transform="translate(192,68)"/>
<path d="M0 0 C-1.44046269 2.88092538 -3.29348008 3.1551933 -6.2421875 4.3828125 C-7.30824219 4.82753906 -8.37429687 5.27226563 -9.47265625 5.73046875 C-11.15681641 6.42076172 -11.15681641 6.42076172 -12.875 7.125 C-14.54755859 7.82689453 -14.54755859 7.82689453 -16.25390625 8.54296875 C-24.60923834 12 -24.60923834 12 -28 12 C-28 11.34 -28 10.68 -28 10 C-24.27743701 8.31829427 -20.54597168 6.65732996 -16.8125 5 C-15.75740234 4.52304688 -14.70230469 4.04609375 -13.61523438 3.5546875 C-12.08286133 2.87792969 -12.08286133 2.87792969 -10.51953125 2.1875 C-9.11344604 1.55908203 -9.11344604 1.55908203 -7.67895508 0.91796875 C-4.93386424 -0.02266203 -2.87765509 -0.18256337 0 0 Z " fill="#DEDEDE" transform="translate(71,72)"/>
<path d="M0 0 C1.32 0.33 2.64 0.66 4 1 C3.67 1.66 3.34 2.32 3 3 C2.34 3 1.68 3 1 3 C1 10.59 1 18.18 1 26 C0.34 26 -0.32 26 -1 26 C-1.33 26.66 -1.66 27.32 -2 28 C-2.05796132 23.89589245 -2.09358313 19.79188984 -2.125 15.6875 C-2.14175781 14.52025391 -2.15851562 13.35300781 -2.17578125 12.15039062 C-2.18222656 11.03212891 -2.18867187 9.91386719 -2.1953125 8.76171875 C-2.20578613 7.73006592 -2.21625977 6.69841309 -2.22705078 5.63549805 C-2 3 -2 3 0 0 Z " fill="#F3F3F3" transform="translate(44,56)"/>
<path d="M0 0 C-6.23647379 2.88659644 -12.66114159 4.82560986 -19.25 6.75 C-20.33796875 7.07871094 -21.4259375 7.40742188 -22.546875 7.74609375 C-23.5884375 8.05160156 -24.63 8.35710937 -25.703125 8.671875 C-26.64833008 8.9512793 -27.59353516 9.23068359 -28.56738281 9.51855469 C-31 10 -31 10 -34 9 C-29.1518606 5.76790707 -23.55680529 4.6353889 -18 3 C-16.72361267 2.60658848 -15.44757092 2.21205404 -14.171875 1.81640625 C-12.93953125 1.44386719 -11.7071875 1.07132813 -10.4375 0.6875 C-9.30183594 0.34074219 -8.16617188 -0.00601563 -6.99609375 -0.36328125 C-4.12286777 -0.9738886 -2.7025496 -1.02419361 0 0 Z " fill="#F1F0F2" transform="translate(120,168)"/>
<path d="M0 0 C0 3.3 0 6.6 0 10 C-0.99 10.33 -1.98 10.66 -3 11 C-3 8.36 -3 5.72 -3 3 C-4.79187629 3.81203758 -6.58349451 4.62464468 -8.375 5.4375 C-9.87160156 6.11619141 -9.87160156 6.11619141 -11.3984375 6.80859375 C-12.94307583 7.51597316 -14.48044922 8.24022461 -16 9 C-16 7.68 -16 6.36 -16 5 C-14.08717875 4.15787744 -12.16957527 3.32661136 -10.25 2.5 C-9.18265625 2.0359375 -8.1153125 1.571875 -7.015625 1.09375 C-4 0 -4 0 0 0 Z " fill="#EDECEB" transform="translate(59,94)"/>
<path d="M0 0 C5.92612881 1.03775528 11.74994096 2.38470787 17.5625 3.9375 C18.76003906 4.25589844 19.95757812 4.57429688 21.19140625 4.90234375 C22.11824219 5.26457031 23.04507813 5.62679687 24 6 C24.33 6.99 24.66 7.98 25 9 C20.31252721 8.51172158 16.43481501 7.509569 12.06640625 5.765625 C8.77601182 4.54649965 5.41559675 3.79290639 2 3 C1.67 3.66 1.34 4.32 1 5 C0.67 3.35 0.34 1.7 0 0 Z " fill="#E5E5E5" transform="translate(128,66)"/>
<path d="M0 0 C1.47968324 0.14049518 2.95874516 0.28754826 4.4375 0.4375 C5.67306641 0.55931641 5.67306641 0.55931641 6.93359375 0.68359375 C9 1 9 1 10 2 C10.08871273 5.02977804 10.1151935 8.03667022 10.09765625 11.06640625 C10.0962413 11.97502914 10.09482635 12.88365204 10.09336853 13.81980896 C10.08775193 16.73407221 10.07519665 19.64825981 10.0625 22.5625 C10.05748714 24.53320202 10.05292386 26.50390524 10.04882812 28.47460938 C10.03777711 33.31643559 10.02050138 38.15820495 10 43 C9.67 43 9.34 43 9 43 C7.5316954 30.04745583 7.90529221 17.01285012 8 4 C5.36 3.01 2.72 2.02 0 1 C0 0.67 0 0.34 0 0 Z " fill="#6A215D" transform="translate(203,138)"/>
<path d="M0 0 C0.89138672 0.25692627 0.89138672 0.25692627 1.80078125 0.51904297 C4.53344282 1.30579876 7.2667152 2.09041224 10 2.875 C10.93457031 3.14441406 11.86914062 3.41382812 12.83203125 3.69140625 C18.19995328 5.23046082 23.5735362 6.68177884 29 8 C26 10 26 10 22.3046875 9.42578125 C20.82463348 9.06886742 19.34813486 8.69697506 17.875 8.3125 C17.11324463 8.12333008 16.35148926 7.93416016 15.56665039 7.73925781 C10.28510791 6.40324216 5.12197829 4.86253756 0 3 C0 2.01 0 1.02 0 0 Z " fill="#D7D5D8" transform="translate(129,101)"/>
<path d="M0 0 C1.625 2 1.625 2 3 4 C2.34 4.66 1.68 5.32 1 6 C1 6.99 1 7.98 1 9 C0.34 9 -0.32 9 -1 9 C-1.66 8.01 -2.32 7.02 -3 6 C-3.99 6.495 -3.99 6.495 -5 7 C-5.66 6.67 -6.32 6.34 -7 6 C-7 6.66 -7 7.32 -7 8 C-8.32 8 -9.64 8 -11 8 C-11 6.68 -11 5.36 -11 4 C-9.5437455 3.32880451 -8.08492133 2.66318193 -6.625 2 C-5.81289062 1.62875 -5.00078125 1.2575 -4.1640625 0.875 C-2 0 -2 0 0 0 Z " fill="#E78E85" transform="translate(110,71)"/>
<path d="M0 0 C7.51524419 1.37779477 14.72787106 3.6846081 22 6 C22 6.66 22 7.32 22 8 C22.66 8 23.32 8 24 8 C23.67 8.66 23.34 9.32 23 10 C21.99839844 9.65066406 20.99679688 9.30132812 19.96484375 8.94140625 C18.62250748 8.48144487 17.2800532 8.02182781 15.9375 7.5625 C15.28072266 7.33240234 14.62394531 7.10230469 13.94726562 6.86523438 C9.62373145 5.39565872 5.53920274 4.51353789 1 4 C1 3.34 1 2.68 1 2 C0.34 1.67 -0.32 1.34 -1 1 C-0.67 0.67 -0.34 0.34 0 0 Z " fill="#E5E5E5" transform="translate(193,41)"/>
<path d="M0 0 C9.22377877 1.61050105 18.05554976 4.28138519 27 7 C27 7.66 27 8.32 27 9 C17.41602648 8.36106843 8.41176799 5.67320444 0 1 C0 0.67 0 0.34 0 0 Z " fill="#E9E9EA" transform="translate(216,75)"/>
<path d="M0 0 C0.33 0 0.66 0 1 0 C1 3.63 1 7.26 1 11 C-1.58067563 11.69918305 -4.16372847 12.38461049 -6.75 13.0625 C-7.47960937 13.26166016 -8.20921875 13.46082031 -8.9609375 13.66601562 C-12.71031044 14.63744407 -15.30274238 15.15449387 -19 14 C-17.35 13.67 -15.7 13.34 -14 13 C-13.67 12.01 -13.34 11.02 -13 10 C-7.06 9.505 -7.06 9.505 -1 9 C-0.67 6.03 -0.34 3.06 0 0 Z " fill="#4B3699" transform="translate(119,224)"/>
<path d="M0 0 C0.33 0 0.66 0 1 0 C1.19627391 1.58226965 1.38165538 3.16589271 1.5625 4.75 C1.66691406 5.63171875 1.77132812 6.5134375 1.87890625 7.421875 C2.08742891 11.8613898 2.08742891 11.8613898 1 14 C-1.94140625 15.484375 -1.94140625 15.484375 -5.5625 16.75 C-6.76003906 17.17796875 -7.95757812 17.6059375 -9.19140625 18.046875 C-10.11824219 18.36140625 -11.04507813 18.6759375 -12 19 C-13 18 -13 18 -13.0625 15.4375 C-13.041875 14.633125 -13.02125 13.82875 -13 13 C-11.515 13.99 -11.515 13.99 -10 15 C-7.6372026 14.07175817 -5.30252483 13.06902939 -3 12 C-2.01 12 -1.02 12 0 12 C0 8.04 0 4.08 0 0 Z " fill="#F4F5F2" transform="translate(56,115)"/>
<path d="M0 0 C9.41002278 0.96355353 9.41002278 0.96355353 14 2 C14 2.66 14 3.32 14 4 C14.99 4 15.98 4 17 4 C16.67 4.99 16.34 5.98 16 7 C13.4375 8.1875 13.4375 8.1875 11 9 C11 8.34 11 7.68 11 7 C10.01 6.67 9.02 6.34 8 6 C8.66 6 9.32 6 10 6 C10 5.34 10 4.68 10 4 C9.36191406 3.87882813 8.72382813 3.75765625 8.06640625 3.6328125 C7.24011719 3.46523437 6.41382813 3.29765625 5.5625 3.125 C4.73878906 2.96257812 3.91507813 2.80015625 3.06640625 2.6328125 C2.38449219 2.42398438 1.70257813 2.21515625 1 2 C0.67 1.34 0.34 0.68 0 0 Z " fill="#2DAEC8" transform="translate(181,193)"/>
<path d="M0 0 C0 7.59 0 15.18 0 23 C-1.81247921 19.37504158 -2.24864042 18.4048294 -2.1953125 14.671875 C-2.18564453 13.47304687 -2.18564453 13.47304687 -2.17578125 12.25 C-2.15902344 11.425 -2.14226562 10.6 -2.125 9.75 C-2.11597656 8.90953125 -2.10695313 8.0690625 -2.09765625 7.203125 C-2.07415817 5.13529396 -2.03828908 3.06761005 -2 1 C-3.98 1 -5.96 1 -8 1 C-5 -1 -5 -1 0 0 Z " fill="#976FA6" transform="translate(121,184)"/>
<path d="M0 0 C0.66 0 1.32 0 2 0 C2.05454409 2.35448675 2.0939279 4.70767875 2.125 7.0625 C2.14820313 8.37347656 2.17140625 9.68445313 2.1953125 11.03515625 C1.99417522 15.11824299 1.27165462 18.14999053 0 22 C-2.64 22 -5.28 22 -8 22 C-7.34 21.34 -6.68 20.68 -6 20 C-4.68 20 -3.36 20 -2 20 C-1.34 13.4 -0.68 6.8 0 0 Z " fill="#473F78" transform="translate(245,228)"/>
<path d="M0 0 C2 2 2 2 2.1953125 4.8203125 C2.16050781 6.45613281 2.16050781 6.45613281 2.125 8.125 C2.10695313 9.22070312 2.08890625 10.31640625 2.0703125 11.4453125 C2.04710938 12.28835937 2.02390625 13.13140625 2 14 C0.76115681 14.72767003 -0.49168341 15.43154815 -1.75 16.125 C-2.44609375 16.51945312 -3.1421875 16.91390625 -3.859375 17.3203125 C-6 18 -6 18 -10 16 C-7.03 15.01 -4.06 14.02 -1 13 C-0.67 8.71 -0.34 4.42 0 0 Z " fill="#F2F2F2" transform="translate(118,38)"/>
<path d="M0 0 C0 0.66 0 1.32 0 2 C-15.71541502 10 -15.71541502 10 -20 10 C-18.68 9.34 -17.36 8.68 -16 8 C-16 7.34 -16 6.68 -16 6 C-13.89915791 4.99303432 -11.79420511 3.9946411 -9.6875 3 C-8.51574219 2.443125 -7.34398438 1.88625 -6.13671875 1.3125 C-3 0 -3 0 0 0 Z " fill="#F2F2F2" transform="translate(113,25)"/>
<path d="M0 0 C1.916588 -0.02712153 3.8332873 -0.04645097 5.75 -0.0625 C7.35101563 -0.07990234 7.35101563 -0.07990234 8.984375 -0.09765625 C11.53368501 -0.01510087 13.57933591 0.25382442 16 1 C16 1.66 16 2.32 16 3 C10.72 3 5.44 3 0 3 C0 2.01 0 1.02 0 0 Z " fill="#F4F4F4" transform="translate(100,292)"/>
<path d="M0 0 C-2.8601731 2.8601731 -6.39184838 3.77745477 -10.125 5.125 C-11.25615234 5.54072266 -11.25615234 5.54072266 -12.41015625 5.96484375 C-14.27163121 6.64817 -16.13558602 7.32473389 -18 8 C-18.33 7.01 -18.66 6.02 -19 5 C-16.39985473 3.96772138 -13.79573631 2.94894848 -11.1875 1.9375 C-10.44951172 1.64294922 -9.71152344 1.34839844 -8.95117188 1.04492188 C-3.33984375 -1.11328125 -3.33984375 -1.11328125 0 0 Z " fill="#ECECEC" transform="translate(64,142)"/>
<path d="M0 0 C4.37934119 0.51958285 8.68803391 1.05675742 13 2 C13.33 4.31 13.66 6.62 14 9 C13.34 8.01 12.68 7.02 12 6 C10.03638136 5.42251197 10.03638136 5.42251197 7.875 5.3125 C5.956875 5.1578125 5.956875 5.1578125 4 5 C3.896875 4.360625 3.79375 3.72125 3.6875 3.0625 C3.460625 2.381875 3.23375 1.70125 3 1 C2.01 0.67 1.02 0.34 0 0 Z " fill="#39A1C1" transform="translate(231,203)"/>
<path d="M0 0 C4.29 0.66 8.58 1.32 13 2 C13 2.99 13 3.98 13 5 C12.34 4.67 11.68 4.34 11 4 C10.01 4.33 9.02 4.66 8 5 C5 5 5 5 2.4375 4.4375 C0.00235139 3.74957739 0.00235139 3.74957739 -2 5 C-1.34 3.35 -0.68 1.7 0 0 Z " fill="#B53163" transform="translate(140,123)"/>
<path d="M0 0 C-0.33 0.99 -0.66 1.98 -1 3 C-8.92 3 -16.84 3 -25 3 C-25 2.67 -25 2.34 -25 2 C-21.20845538 1.66526866 -17.41674514 1.33245159 -13.625 1 C-12.54476562 0.90460938 -11.46453125 0.80921875 -10.3515625 0.7109375 C-8.8046875 0.57558594 -8.8046875 0.57558594 -7.2265625 0.4375 C-5.79691162 0.31181641 -5.79691162 0.31181641 -4.33837891 0.18359375 C-2 0 -2 0 0 0 Z " fill="#F8F8F8" transform="translate(243,292)"/>
<path d="M0 0 C0.66 0.33 1.32 0.66 2 1 C1.67 6.94 1.34 12.88 1 19 C-1 17 -1 17 -1.23046875 13.33984375 C-1.22647733 11.87233136 -1.21172158 10.40481791 -1.1875 8.9375 C-1.18685547 8.19177734 -1.18621094 7.44605469 -1.18554688 6.67773438 C-1.14028159 1.14028159 -1.14028159 1.14028159 0 0 Z " fill="#F8F8F8" transform="translate(119,21)"/>
<path d="M0 0 C0.33 0 0.66 0 1 0 C1 2.97 1 5.94 1 9 C-4.21979128 9.1799928 -8.07262981 8.97094808 -13 7 C-8.91556885 5.46833832 -5.20544343 6.36918348 -1 7 C-1.020625 6.030625 -1.04125 5.06125 -1.0625 4.0625 C-1 1 -1 1 0 0 Z " fill="#442B60" transform="translate(246,243)"/>
<path d="M0 0 C6.29299361 -0.41953291 12.09333017 0.77222487 18 3 C18.33 3.66 18.66 4.32 19 5 C12.31006781 4.46048934 6.36539272 3.11293829 0 1 C0 0.67 0 0.34 0 0 Z " fill="#CCCCCE" transform="translate(185,118)"/>
<path d="M0 0 C5.23880078 0.55145271 9.97350697 1.42922093 15 3 C15 3.99 15 4.98 15 6 C13.56206608 5.68950274 12.1246682 5.3765224 10.6875 5.0625 C9.88699219 4.88847656 9.08648437 4.71445312 8.26171875 4.53515625 C6 4 6 4 3 3 C3 2.34 3 1.68 3 1 C2.01 0.67 1.02 0.34 0 0 Z " fill="#F3F3F3" transform="translate(138,53)"/>
<path d="M0 0 C-0.66 0 -1.32 0 -2 0 C-2 0.66 -2 1.32 -2 2 C-6.22949995 4.41685712 -9.12335991 5.34833144 -14 5 C-10.69595986 0.91853865 -5.12984719 -2.25713276 0 0 Z " fill="#D5897B" transform="translate(101,77)"/>
<path d="M0 0 C-9.22551253 5.55580866 -9.22551253 5.55580866 -15 6 C-12.88577537 2.82866306 -11.98035278 2.24374509 -8.625 0.75 C-7.85414062 0.39421875 -7.08328125 0.0384375 -6.2890625 -0.328125 C-3.73704514 -1.07718129 -2.47221736 -0.88051577 0 0 Z " fill="#E5E5E5" transform="translate(82,41)"/>
<path d="M0 0 C5.65394631 -0.34615998 9.03006806 0.56574762 14 3 C14 3.99 14 4.98 14 6 C13.44570312 5.77183594 12.89140625 5.54367188 12.3203125 5.30859375 C11.59585938 5.02113281 10.87140625 4.73367187 10.125 4.4375 C9.04605469 4.00244141 9.04605469 4.00244141 7.9453125 3.55859375 C5.94350596 2.7462882 5.94350596 2.7462882 4 4 C4 3.34 4 2.68 4 2 C2.68 1.34 1.36 0.68 0 0 Z " fill="#F0F0F0" transform="translate(165,33)"/>
<path d="M0 0 C1.74991334 -0.02715383 3.49994945 -0.04646551 5.25 -0.0625 C6.71179688 -0.07990234 6.71179688 -0.07990234 8.203125 -0.09765625 C10.65758678 -0.01195577 12.66168914 0.29293934 15 1 C15 1.66 15 2.32 15 3 C10.05 3 5.1 3 0 3 C0 2.01 0 1.02 0 0 Z " fill="#F1F1F1" transform="translate(129,292)"/>
<path d="M0 0 C14.05555556 1.05555556 14.05555556 1.05555556 18 5 C13.8547173 4.45931095 9.73780199 3.81296818 5.625 3.0625 C4.77164063 2.90910156 3.91828125 2.75570312 3.0390625 2.59765625 C2.36617187 2.40042969 1.69328125 2.20320312 1 2 C0.67 1.34 0.34 0.68 0 0 Z " fill="#E9E9E9" transform="translate(141,185)"/>
<path d="M0 0 C2.3125 0.3125 2.3125 0.3125 5 1 C6.3921875 1.2784375 6.3921875 1.2784375 7.8125 1.5625 C8.534375 1.706875 9.25625 1.85125 10 2 C10 2.66 10 3.32 10 4 C8.948125 3.979375 7.89625 3.95875 6.8125 3.9375 C3.67295096 3.98896802 1.03116604 4.26517187 -2 5 C-2 2 -2 2 0 0 Z " fill="#AB3066" transform="translate(171,131)"/>
<path d="M0 0 C5.77227287 -0.36844295 10.7230161 0.53136805 16 3 C16.33 3.66 16.66 4.32 17 5 C11.18733381 4.21450457 5.63122376 2.59317541 0 1 C0 0.67 0 0.34 0 0 Z " fill="#CECCCF" transform="translate(155,110)"/>
<path d="M0 0 C0 0.66 0 1.32 0 2 C-1.8125 3.0625 -1.8125 3.0625 -4 4 C-4.99 3.67 -5.98 3.34 -7 3 C-7.33 3.33 -7.66 3.66 -8 4 C-10.33297433 4.04092937 -12.66705225 4.04241723 -15 4 C-10.34714182 0.89809455 -5.58467324 -0.33846504 0 0 Z " fill="#A06DBE" transform="translate(78,196)"/>
<path d="M0 0 C1.72945653 0.14235457 3.45855654 0.28904382 5.1875 0.4375 C6.63189453 0.55931641 6.63189453 0.55931641 8.10546875 0.68359375 C10.78649602 0.97666151 13.3662986 1.42703754 16 2 C12.50167864 4.22695992 10.32036328 4.04194094 6.3125 3.25 C4.85263672 2.97929687 4.85263672 2.97929687 3.36328125 2.703125 C2.58339844 2.47109375 1.80351562 2.2390625 1 2 C0.67 1.34 0.34 0.68 0 0 Z " fill="#653362" transform="translate(130,167)"/>
<path d="M0 0 C1.8161982 0.42188459 3.62794073 0.86299165 5.4375 1.3125 C6.95150391 1.67794922 6.95150391 1.67794922 8.49609375 2.05078125 C9.32238281 2.36402344 10.14867187 2.67726563 11 3 C11.33 3.99 11.66 4.98 12 6 C7.61667943 5.17812739 3.32059823 4.09845718 -1 3 C-0.67 2.01 -0.34 1.02 0 0 Z " fill="#E4E4E4" transform="translate(234,96)"/>
<path d="M0 0 C1.32 0.33 2.64 0.66 4 1 C4.08086147 2.79093191 4.13912702 4.58289628 4.1875 6.375 C4.22230469 7.37273437 4.25710937 8.37046875 4.29296875 9.3984375 C4.19628906 10.25695312 4.09960938 11.11546875 4 12 C3.01 12.66 2.02 13.32 1 14 C1.33 9.71 1.66 5.42 2 1 C1.34 0.67 0.68 0.34 0 0 Z " fill="#3A87A1" transform="translate(243,206)"/>
<path d="M0 0 C1.47968324 0.14049518 2.95874516 0.28754826 4.4375 0.4375 C5.67306641 0.55931641 5.67306641 0.55931641 6.93359375 0.68359375 C9 1 9 1 10 2 C10.07244053 4.01964199 10.08377188 6.04167124 10.0625 8.0625 C10.05347656 9.16722656 10.04445312 10.27195313 10.03515625 11.41015625 C10.02355469 12.26480469 10.01195312 13.11945313 10 14 C9.67 14 9.34 14 9 14 C8.67 10.7 8.34 7.4 8 4 C5.36 3.01 2.72 2.02 0 1 C0 0.67 0 0.34 0 0 Z " fill="#7E2D57" transform="translate(203,138)"/>
<path d="M0 0 C4.62 1.32 9.24 2.64 14 4 C11 6 11 6 8.84375 5.86328125 C8.0703125 5.68152344 7.296875 5.49976562 6.5 5.3125 C5.7265625 5.14363281 4.953125 4.97476563 4.15625 4.80078125 C1.78566115 3.92039952 0.63312036 2.90007272 -1 1 C-0.67 0.67 -0.34 0.34 0 0 Z " fill="#EAE8EA" transform="translate(129,101)"/>
<path d="M0 0 C0.66 0.33 1.32 0.66 2 1 C2 2.32 2 3.64 2 5 C-1.3 5.66 -4.6 6.32 -8 7 C-8 6.01 -8 5.02 -8 4 C-5.69 4 -3.38 4 -1 4 C-0.67 2.68 -0.34 1.36 0 0 Z " fill="#4A36A2" transform="translate(97,235)"/>
<path d="M0 0 C0.66 0.66 1.32 1.32 2 2 C4.20250992 2.46006346 4.20250992 2.46006346 6.625 2.625 C7.44226562 2.69976562 8.25953125 2.77453125 9.1015625 2.8515625 C9.72804688 2.90054687 10.35453125 2.94953125 11 3 C9 5 9 5 6.8359375 5.1953125 C5.61777344 5.16050781 5.61777344 5.16050781 4.375 5.125 C3.55773438 5.10695313 2.74046875 5.08890625 1.8984375 5.0703125 C1.27195313 5.04710937 0.64546875 5.02390625 0 5 C-0.5625 3.0625 -0.5625 3.0625 -1 1 C-0.67 0.67 -0.34 0.34 0 0 Z " fill="#F1F1F1" transform="translate(43,290)"/>
<path d="M0 0 C0.33 0 0.66 0 1 0 C1.16798051 2.27073652 1.33434113 4.54159293 1.5 6.8125 C1.5928125 8.07707031 1.685625 9.34164062 1.78125 10.64453125 C1.91914781 12.75978517 2 14.88025592 2 17 C1.01 16.67 0.02 16.34 -1 16 C-0.67 10.72 -0.34 5.44 0 0 Z " fill="#4232A2" transform="translate(43,235)"/>
<path d="M0 0 C-3.85623679 3.97674419 -3.85623679 3.97674419 -7.11328125 4.04296875 C-9.08863015 3.7798228 -11.04718291 3.39718314 -13 3 C-8.83099908 0.22066605 -4.8978425 -1.63261417 0 0 Z " fill="#946FBA" transform="translate(56,203)"/>
<path d="M0 0 C1.77226453 0.28284018 3.542788 0.57660498 5.3125 0.875 C6.29863281 1.03742188 7.28476563 1.19984375 8.30078125 1.3671875 C11 2 11 2 14 4 C11.23556715 5.07010304 9.46148633 5.16283213 6.6640625 4.17578125 C4.41525773 3.16488321 2.19840363 2.11596524 0 1 C0 0.67 0 0.34 0 0 Z " fill="#8B3057" transform="translate(167,128)"/>
<path d="M0 0 C4.95 0.99 4.95 0.99 10 2 C9.34 2.66 8.68 3.32 8 4 C4.875 3.625 4.875 3.625 2 3 C1.67 3.66 1.34 4.32 1 5 C0.67 3.35 0.34 1.7 0 0 Z " fill="#F1F0F0" transform="translate(128,66)"/>
<path d="M0 0 C3.46941546 0.45822468 6.67395049 0.89131683 10 2 C10 2.99 10 3.98 10 5 C6.7 4.01 3.4 3.02 0 2 C0 1.34 0 0.68 0 0 Z " fill="#F1F1F1" transform="translate(146,26)"/>
<path d="M0 0 C0 0.66 0 1.32 0 2 C-0.99 2.33 -1.98 2.66 -3 3 C-3.66 3.66 -4.32 4.32 -5 5 C-5 4.34 -5 3.68 -5 3 C-6.98 3.33 -8.96 3.66 -11 4 C-7.63468909 0.12989245 -5.04040803 0 0 0 Z " fill="#F2F2F2" transform="translate(118,250)"/>
<path d="M0 0 C0 0.66 0 1.32 0 2 C-3.47325181 3.1577506 -6.36067448 3.06866652 -10 3 C-4.37755102 -1.45918367 -4.37755102 -1.45918367 0 0 Z " fill="#F3CE8A" transform="translate(88,115)"/>
<path d="M0 0 C3.625 0.375 3.625 0.375 7 1 C7 1.66 7 2.32 7 3 C7.66 3 8.32 3 9 3 C8.67 3.66 8.34 4.32 8 5 C4.7 4.01 1.4 3.02 -2 2 C-1.34 1.34 -0.68 0.68 0 0 Z " fill="#EEEEEE" transform="translate(208,46)"/>
<path d="M0 0 C1.64666203 0.1135629 3.29236082 0.24117381 4.9375 0.375 C5.85402344 0.44460937 6.77054688 0.51421875 7.71484375 0.5859375 C8.84599609 0.79089844 8.84599609 0.79089844 10 1 C10.33 1.66 10.66 2.32 11 3 C8.36 3.33 5.72 3.66 3 4 C3 3.01 3 2.02 3 1 C2.01 0.67 1.02 0.34 0 0 Z " fill="#37A2BA" transform="translate(195,196)"/>
<path d="M0 0 C0.66 0.33 1.32 0.66 2 1 C2 1.33 2 1.66 2 2 C2.66 2.33 3.32 2.66 4 3 C3.01 4.485 3.01 4.485 2 6 C-0.625 6.1875 -0.625 6.1875 -3 6 C-3 5.34 -3 4.68 -3 4 C-2.34 4 -1.68 4 -1 4 C-1 3.34 -1 2.68 -1 2 C-1.66 1.67 -2.32 1.34 -3 1 C-2.01 0.67 -1.02 0.34 0 0 Z " fill="#A96CCB" transform="translate(79,194)"/>
<path d="M0 0 C1.485 0.99 1.485 0.99 3 2 C6.14221967 1.68493373 6.14221967 1.68493373 9 1 C9 1.66 9 2.32 9 3 C6.03 3.66 3.06 4.32 0 5 C0 3.35 0 1.7 0 0 Z " fill="#F2F1F4" transform="translate(43,186)"/>
<path d="M0 0 C2.6875 1.9375 2.6875 1.9375 5 4 C2.6875 4.625 2.6875 4.625 0 5 C-0.99 4.34 -1.98 3.68 -3 3 C-3 2.34 -3 1.68 -3 1 C-2.01 0.67 -1.02 0.34 0 0 Z " fill="#F5C993" transform="translate(99,107)"/>
<path d="M0 0 C0.556875 0.226875 1.11375 0.45375 1.6875 0.6875 C-0.44714912 3.14234649 -2.01970291 4.36884222 -5.3125 4.6875 C-5.9725 4.0275 -6.6325 3.3675 -7.3125 2.6875 C-2.88173077 -0.38942308 -2.88173077 -0.38942308 0 0 Z " fill="#F19882" transform="translate(88.3125,82.3125)"/>
<path d="M0 0 C2.8125 0.3125 2.8125 0.3125 6 1 C6.94875 1.185625 7.8975 1.37125 8.875 1.5625 C9.57625 1.706875 10.2775 1.85125 11 2 C11 2.33 11 2.66 11 3 C6.48382401 3.07654536 2.40914783 3.10228696 -2 2 C-1.34 1.34 -0.68 0.68 0 0 Z " fill="#542657" transform="translate(151,171)"/>
<path d="M0 0 C0.66 0.33 1.32 0.66 2 1 C2 1.66 2 2.32 2 3 C3.32 3.33 4.64 3.66 6 4 C6 4.33 6 4.66 6 5 C3.69 4.67 1.38 4.34 -1 4 C-1 3.34 -1 2.68 -1 2 C-1.66 1.67 -2.32 1.34 -3 1 C-2.01 0.67 -1.02 0.34 0 0 Z " fill="#71296E" transform="translate(156,168)"/>
<path d="M0 0 C4.455 0.99 4.455 0.99 9 2 C8.67 2.66 8.34 3.32 8 4 C5.36 3.67 2.72 3.34 0 3 C0 2.01 0 1.02 0 0 Z " fill="#8F3158" transform="translate(192,134)"/>
<path d="M0 0 C-3.28463659 2.18975773 -6.20696275 2.99806563 -10 4 C-10 3.01 -10 2.02 -10 1 C-6.52674819 -0.1577506 -3.63932552 -0.06866652 0 0 Z " fill="#EAD69A" transform="translate(83,118)"/>
<path d="M0 0 C3.375 0.3125 3.375 0.3125 7 1 C7.66 1.99 8.32 2.98 9 4 C4.545 3.01 4.545 3.01 0 2 C0 1.34 0 0.68 0 0 Z " fill="#F4F4F4" transform="translate(134,22)"/>
<path d="M0 0 C0 0.66 0 1.32 0 2 C-3.465 3.485 -3.465 3.485 -7 5 C-7 3.68 -7 2.36 -7 1 C-4.53721199 -0.231394 -2.7204945 -0.07159196 0 0 Z " fill="#F0F0F2" transform="translate(50,265)"/>
<path d="M0 0 C-5.29230769 4.06153846 -5.29230769 4.06153846 -8.875 3.75 C-9.57625 3.5025 -10.2775 3.255 -11 3 C-3.71428571 -1.85714286 -3.71428571 -1.85714286 0 0 Z " fill="#B765D0" transform="translate(111,188)"/>
<path d="M0 0 C1.485 0.99 1.485 0.99 3 2 C3.99 2 4.98 2 6 2 C6 2.66 6 3.32 6 4 C4.35 4.66 2.7 5.32 1 6 C0 5 0 5 -0.0625 2.4375 C-0.041875 1.633125 -0.02125 0.82875 0 0 Z " fill="#EEEEEE" transform="translate(43,128)"/>
<path d="M0 0 C0.33 0.66 0.66 1.32 1 2 C1.66 2 2.32 2 3 2 C3 3.98 3 5.96 3 8 C2.01 8.33 1.02 8.66 0 9 C0 6.03 0 3.06 0 0 Z " fill="#F5F4F0" transform="translate(56,96)"/>
<path d="M0 0 C2.97 0.33 5.94 0.66 9 1 C6 3 6 3 2.8125 2.625 C1.884375 2.41875 0.95625 2.2125 0 2 C0 1.34 0 0.68 0 0 Z " fill="#DEDEDE" transform="translate(222,127)"/>
<path d="M0 0 C6.625 -0.125 6.625 -0.125 10 1 C10 1.66 10 2.32 10 3 C6.28111761 2.49287967 3.26545761 1.88391785 0 0 Z " fill="#C6C6C8" transform="translate(185,118)"/>
<path d="M0 0 C2.64 0.33 5.28 0.66 8 1 C8 1.66 8 2.32 8 3 C5.36 2.67 2.72 2.34 0 2 C0 1.34 0 0.68 0 0 Z " fill="#DEDEDE" transform="translate(235,81)"/>
<path d="M0 0 C0.33 0 0.66 0 1 0 C1.33 2.97 1.66 5.94 2 9 C0.35 9.33 -1.3 9.66 -3 10 C-2.67 9.34 -2.34 8.68 -2 8 C-1.34 8 -0.68 8 0 8 C0 5.36 0 2.72 0 0 Z " fill="#EBEBEB" transform="translate(245,75)"/>
<path d="M0 0 C-0.33 0.99 -0.66 1.98 -1 3 C-3.06640625 3.73046875 -3.06640625 3.73046875 -5.5625 4.1875 C-6.38878906 4.34605469 -7.21507813 4.50460938 -8.06640625 4.66796875 C-9.02353516 4.83232422 -9.02353516 4.83232422 -10 5 C-8.28489314 1.56978628 -3.75681361 0 0 0 Z " fill="#BD7779" transform="translate(120,67)"/>
</svg>
